<?xml version="1.0" standalone="no"?>
<!DOCTYPE svg PUBLIC "-//W3C//DTD SVG 20010904//EN"
 "http://www.w3.org/TR/2001/REC-SVG-20010904/DTD/svg10.dtd">
<svg version="1.0" xmlns="http://www.w3.org/2000/svg"
 width="512.000000pt" height="512.000000pt" viewBox="0 0 512.000000 512.000000"
 preserveAspectRatio="xMidYMid meet">
<metadata>
Created by potrace 1.11, written by Peter Selinger 2001-2013
</metadata>
<g transform="translate(0.000000,512.000000) scale(0.100000,-0.100000)"
fill="#000000" stroke="none">
<path d="M2495 4978 c-78 -139 -154 -270 -165 -288 -10 -15 -54 -93 -93 -160
-11 -19 -71 -125 -135 -235 -103 -179 -175 -303 -347 -600 -29 -49 -123 -214
-210 -365 -87 -151 -169 -292 -182 -312 -12 -21 -23 -40 -23 -44 0 -3 -8 -18
-19 -32 -10 -15 -30 -49 -45 -75 -28 -52 -188 -330 -369 -642 -113 -195 -379
-656 -450 -780 -22 -38 -102 -177 -179 -308 -76 -131 -138 -243 -138 -248 0
-5 -4 -9 -10 -9 -5 0 -10 -5 -10 -10 0 -6 -27 -57 -60 -113 l-61 -102 1093 -3
c600 -1 1095 1 1099 5 9 11 319 550 319 556 0 2 -342 4 -760 3 -445 0 -760 3
-760 8 0 5 19 41 41 80 190 327 477 824 547 948 47 82 153 264 162 278 6 8 13
21 17 29 3 8 51 91 106 185 55 94 110 189 122 211 13 22 46 81 75 130 55 94
294 509 349 605 17 30 36 62 41 70 37 61 100 174 100 182 0 20 20 -5 56 -70
21 -37 45 -79 54 -93 39 -68 266 -461 275 -477 6 -9 31 -53 57 -97 25 -44 59
-103 75 -131 127 -227 258 -443 264 -437 10 10 279 473 279 480 0 3 9 16 20
30 11 14 20 32 20 40 0 8 -77 148 -171 311 -95 163 -180 311 -189 327 -71 123
-192 333 -199 345 -6 8 -34 58 -64 110 -30 52 -105 183 -167 290 -62 107 -125
215 -139 241 -119 208 -156 269 -161 269 -4 0 -33 -46 -65 -102z"/>
<path d="M3748 2839 c-31 -52 -76 -130 -100 -174 -25 -44 -84 -147 -132 -228
-47 -82 -86 -153 -86 -158 0 -4 50 -95 111 -201 62 -106 123 -213 137 -238 14
-25 33 -57 43 -72 11 -14 19 -29 19 -32 0 -3 27 -51 60 -107 33 -55 60 -102
60 -104 0 -2 27 -49 60 -104 33 -56 60 -105 60 -109 0 -4 -250 -7 -556 -7
-426 0 -558 -3 -566 -12 -5 -7 -56 -92 -112 -190 -57 -98 -137 -238 -180 -312
-42 -73 -75 -135 -73 -137 2 -2 594 -3 1315 -2 l1312 3 -101 175 c-56 96 -109
189 -119 205 -9 17 -51 89 -93 162 -42 72 -85 147 -95 165 -11 18 -104 179
-207 358 -104 179 -228 395 -277 480 -48 85 -92 162 -97 170 -5 8 -77 132
-160 275 -83 143 -155 266 -160 274 -6 9 -23 -12 -63 -80z"/>
<path d="M530 366 c-13 -34 -91 -219 -97 -228 -2 -5 9 -8 25 -8 23 0 32 6 41
28 11 26 15 28 69 27 52 0 58 -3 70 -28 10 -20 20 -27 42 -27 34 0 37 -16 -34
150 -42 98 -47 105 -76 108 -24 3 -32 -1 -40 -22z m65 -98 l15 -38 -39 0 -40
0 17 45 c18 49 23 48 47 -7z"/>
<path d="M730 260 l0 -130 31 0 31 0 -4 75 c-2 41 -1 75 2 75 3 0 32 -34 63
-75 44 -57 64 -75 83 -75 l24 0 0 130 0 130 -28 0 -29 0 0 -70 c-1 -38 -2 -73
-2 -77 -1 -7 -19 14 -79 91 -32 41 -50 56 -68 56 l-24 0 0 -130z"/>
<path d="M1020 304 c0 -101 17 -146 61 -164 42 -18 107 -7 137 23 23 23 25 35
28 126 l4 101 -30 0 -30 0 0 -89 c0 -98 -11 -121 -55 -121 -49 0 -58 22 -57
153 0 56 0 57 -29 57 l-29 0 0 -86z"/>
<path d="M1290 366 c0 -20 5 -25 23 -24 67 3 67 3 67 -66 0 -35 -3 -71 -6 -80
-7 -19 -45 -21 -62 -4 -10 10 -16 8 -30 -6 -16 -16 -16 -18 7 -37 40 -33 119
-19 138 25 6 11 10 64 9 116 l-1 95 -72 3 c-72 3 -73 3 -73 -22z"/>
<path d="M1490 260 l0 -130 99 0 c98 0 98 0 94 24 -4 21 -10 23 -63 24 -70 0
-79 4 -73 35 4 22 9 24 59 22 50 -1 54 0 54 22 0 21 -4 23 -54 23 -43 0 -55 4
-58 18 -10 41 0 47 67 45 63 -2 65 -1 65 22 0 25 -1 25 -95 25 l-95 0 0 -130z"/>
<path d="M1730 260 l0 -130 99 0 98 0 -4 25 c-5 23 -9 24 -65 23 -62 -2 -80 8
-71 41 4 14 15 17 59 16 50 -1 54 0 54 22 0 21 -4 23 -56 23 l-55 0 3 32 3 31
63 -1 c59 0 62 1 62 24 0 24 -1 24 -95 24 l-95 0 0 -130z"/>
<path d="M1942 368 c2 -19 9 -23 41 -23 31 1 37 -3 38 -20 0 -11 1 -59 1 -107
l1 -88 29 0 28 0 0 105 c0 111 -2 108 53 107 22 -1 27 4 27 24 0 24 0 24 -111
24 -109 0 -110 0 -107 -22z"/>
<path d="M2343 370 c-37 -25 -63 -75 -59 -116 2 -16 4 -33 5 -39 2 -15 43 -58
70 -73 31 -18 100 -13 134 11 27 18 27 20 11 38 -15 16 -19 17 -37 4 -50 -35
-113 -6 -123 55 -11 70 64 116 123 75 18 -13 22 -12 38 5 16 18 16 20 -13 38
-44 26 -110 27 -149 2z"/>
<path d="M2560 261 l0 -131 29 0 c26 0 30 4 29 27 -1 75 -3 73 57 73 l55 0 0
-50 c0 -49 1 -50 30 -50 l30 0 0 130 0 130 -30 0 c-30 0 -30 -1 -30 -55 l0
-56 -57 3 -58 3 0 50 c0 47 -2 50 -27 53 l-28 3 0 -130z"/>
<path d="M2912 343 c-11 -27 -37 -85 -56 -130 l-35 -83 27 0 c19 0 32 8 43 28
14 25 21 28 70 27 49 0 55 -3 67 -28 10 -20 20 -27 42 -27 34 0 37 -13 -34
150 -25 58 -46 106 -46 107 0 2 -13 3 -28 3 -24 0 -32 -7 -50 -47z m70 -68
l17 -45 -39 0 -39 0 17 45 c9 25 19 45 22 45 3 0 13 -20 22 -45z"/>
<path d="M3084 368 c2 -18 10 -23 35 -24 17 -1 34 -4 37 -7 4 -3 7 -51 7 -107
l0 -100 29 0 28 0 0 105 c0 111 -1 109 53 105 17 -1 27 4 27 12 0 10 2 10 8 0
5 -7 22 -10 40 -8 36 4 33 14 34 -126 l1 -88 29 0 28 0 0 105 c0 111 -2 108
53 107 22 -1 27 4 27 24 l0 24 -220 0 -220 0 4 -22z"/>
<path d="M3550 260 l0 -130 94 0 c69 0 95 4 99 13 10 26 -8 34 -68 34 -60 -1
-60 -1 -63 30 l-3 31 55 -3 c41 -1 56 2 56 12 0 7 0 16 0 21 0 4 -25 9 -57 12
-50 4 -57 7 -58 28 -2 29 10 34 78 36 46 1 52 4 55 24 3 21 1 22 -92 22 l-96
0 0 -130z"/>
<path d="M3800 259 l0 -130 28 3 c15 2 28 10 28 18 1 8 2 23 3 33 1 12 9 17
29 17 20 0 33 -9 50 -35 17 -27 29 -35 52 -35 17 0 30 1 30 3 0 2 -11 18 -25
37 l-25 34 20 21 c25 27 33 92 14 121 -22 32 -58 44 -134 44 l-70 0 0 -131z
m156 45 c12 -46 -24 -67 -96 -55 -4 1 -4 48 -1 83 1 11 54 15 73 6 10 -5 21
-20 24 -34z"/>
<path d="M4040 370 c0 -21 32 -34 66 -28 17 3 19 -5 22 -57 5 -100 -12 -125
-68 -95 -26 14 -50 -15 -28 -36 21 -21 84 -29 113 -14 33 18 44 58 44 163 l0
87 -75 0 c-67 0 -74 -2 -74 -20z"/>
<path d="M4250 260 l0 -130 99 0 c98 0 98 0 94 24 -4 20 -11 23 -51 24 -92 0
-89 -1 -84 31 4 27 6 28 55 26 63 -2 67 -1 60 25 -4 17 -14 20 -58 20 -43 0
-54 3 -58 19 -8 33 8 44 70 45 52 1 58 3 61 24 3 21 1 22 -92 22 l-96 0 0
-130z"/>
<path d="M4490 260 l0 -130 99 0 98 0 -5 25 c-4 23 -9 25 -46 24 -81 -3 -86
-1 -86 30 0 28 1 28 53 26 53 -1 69 7 60 32 -3 9 -23 13 -59 13 -53 0 -54 0
-54 30 0 32 10 35 98 30 28 -1 32 1 32 24 l0 26 -95 0 -95 0 0 -130z"/>
</g>
</svg>
