<?xml version="1.0" encoding="utf-8"?>
<!-- Generator: Adobe Illustrator 22.0.1, SVG Export Plug-In . SVG Version: 6.00 Build 0)  -->
<svg version="1.1" id="_x31_6" xmlns="http://www.w3.org/2000/svg" xmlns:xlink="http://www.w3.org/1999/xlink" x="0px" y="0px"
	 viewBox="0 0 100 100" style="enable-background:new 0 0 100 100;" xml:space="preserve">
<style type="text/css">
	.st0{fill-rule:evenodd;clip-rule:evenodd;fill:#F2F2F2;}
</style>
<path class="st0" d="M30.5,51.6h8.1c1.8,0,4.9,0.8,4.9,4.2c0,1.8-1.4,3.9-3.2,3.9h-9.8V51.6z M56.5,35.4h14.6v4.9H56.5V35.4z
	 M69.2,51.6H58.5c0.3-2.9,2.5-4.8,5.4-4.8C66.7,46.8,68.8,48.8,69.2,51.6L69.2,51.6z M58.1,54.9H76c0-0.2,0-0.5,0-0.8
	c0-6.7-4.9-12.2-12.2-12.2c-7.4,0-12.2,5.5-12.2,12.2c0,6.8,4.8,12.2,12.2,12.2c7.3,0,10.8-4.2,11.9-9.8h-6.6
	c-0.6,2.9-2.3,4.9-5.3,4.9C60.8,61.4,58.4,58.5,58.1,54.9L58.1,54.9z M50,56.5c0-3.5-2.4-6.6-5.5-7.6c2.3-1.5,3.9-4,3.9-7
	c0-4.5-3.6-8.1-8.1-8.1H24v32.5h16.3C45.6,66.3,50,61.9,50,56.5L50,56.5z M38.6,46.8h-8.1v-6.6h8.1c1.8,0,3.3,1.5,3.3,3.3
	C41.9,45.3,40.4,46.8,38.6,46.8L38.6,46.8z"/>
</svg>
