<?xml version="1.0" encoding="utf-8"?>
<!-- Generator: Adobe Illustrator 22.0.1, SVG Export Plug-In . SVG Version: 6.00 Build 0)  -->
<svg version="1.1" id="_x31_6" xmlns="http://www.w3.org/2000/svg" xmlns:xlink="http://www.w3.org/1999/xlink" x="0px" y="0px"
	 viewBox="0 0 100 100" style="enable-background:new 0 0 100 100;" xml:space="preserve">
<style type="text/css">
	.st0{fill-rule:evenodd;clip-rule:evenodd;fill:#F2F2F2;}
</style>
<path class="st0" d="M74.9,49.1c0-1.4-0.2-2.8-0.5-4.1c-0.3-1.6-0.8-3.2-1.4-4.7c-0.7-1.5-1.4-2.9-2.3-4.3c-0.9-1.3-1.9-2.5-3-3.7
	c-1.1-1.1-2.4-2.2-3.7-3c-1.3-0.9-2.7-1.6-4.2-2.3c-1.5-0.6-3.1-1.1-4.7-1.4c-1.6-0.3-3.3-0.5-5-0.5c-1.7,0-3.4,0.2-5,0.5
	c-1.6,0.3-3.2,0.8-4.7,1.4c-1.5,0.7-2.9,1.4-4.3,2.3c-1.3,0.9-2.6,1.9-3.7,3c-1.2,1.2-2.2,2.4-3,3.7c-0.9,1.4-1.7,2.8-2.3,4.3
	c-0.7,1.5-1.2,3.1-1.5,4.7c-0.3,1.3-0.4,2.6-0.5,3.8c-0.1,0.4-0.1,0.8-0.1,1.2c0,1.7,0.2,3.3,0.5,5c0.3,1.6,0.8,3.2,1.5,4.7
	c0.6,1.5,1.3,2.9,2.3,4.3c0.9,1.3,1.9,2.5,3,3.7c1.1,1.2,2.4,2.2,3.7,3c1.3,0.9,2.8,1.6,4.3,2.3c1.5,0.7,3.1,1.2,4.7,1.5
	c1.6,0.4,3.3,0.5,5,0.5c1.7,0,3.4-0.1,5-0.5c1.6-0.3,3.2-0.8,4.7-1.5c1.5-0.6,2.9-1.4,4.2-2.3c1.3-0.9,2.6-1.9,3.7-3
	c1.1-1.2,2.1-2.4,3-3.7c0.9-1.4,1.7-2.8,2.3-4.3c0.6-1.5,1.1-3.1,1.4-4.7c0.3-1.6,0.5-3.3,0.5-5C74.9,49.7,74.9,49.4,74.9,49.1
	L74.9,49.1z M50,28.7c5.4,0,10.3,2,14.1,5.3c-0.1,0.1-3.1,4.7-11.1,7.7c-3.6-6.7-7.6-12-8-12.4C46.6,29,48.3,28.7,50,28.7L50,28.7z
	 M44.9,29.3L44.9,29.3C44.9,29.3,44.9,29.4,44.9,29.3C44.9,29.4,44.9,29.3,44.9,29.3L44.9,29.3z M40.9,30.8
	c0.3,0.4,4.3,5.7,7.9,12.3c-10.2,2.7-19.1,2.6-19.6,2.6C30.6,39,35,33.6,40.9,30.8L40.9,30.8z M34.2,64.2c-3.4-3.8-5.5-8.7-5.5-14.2
	c0-0.3,0-0.5,0-0.7c0.4,0,10.9,0.2,21.9-3c0.6,1.2,1.2,2.4,1.7,3.6c-0.3,0-0.6,0.1-0.9,0.2C40,53.9,34.2,64.2,34.2,64.2L34.2,64.2z
	 M50,71.3c-4.9,0-9.5-1.7-13.1-4.5l0,0c0,0-0.2-0.1-0.5-0.4c0.1,0.1,0.3,0.2,0.5,0.4c0.1-0.1,4.2-8.9,16.7-13.3c0.1,0,0.1,0,0.1,0
	c3,7.8,4.2,14.3,4.5,16.1C55.7,70.7,52.9,71.3,50,71.3L50,71.3z M61.9,67.7c-0.2-1.3-1.3-7.5-4.1-15.2c6.9-1.1,12.8,0.8,13.3,0.9
	C70.1,59.3,66.7,64.5,61.9,67.7L61.9,67.7z M56.5,49.1c-0.2-0.4-0.4-0.7-0.5-1.1c-0.4-0.8-0.7-1.5-1-2.2c-0.1-0.3-0.3-0.5-0.4-0.8
	c8.4-3.4,11.8-8.3,11.9-8.4c2.6,3.2,4.4,7.2,4.7,11.6c0,0.5,0.1,1.1,0.1,1.7C71,49.7,63.8,48.2,56.5,49.1L56.5,49.1z"/>
</svg>
