<?xml version="1.0" encoding="utf-8"?>
<!-- Generator: Adobe Illustrator 22.0.1, SVG Export Plug-In . SVG Version: 6.00 Build 0)  -->
<svg version="1.1" xmlns="http://www.w3.org/2000/svg" xmlns:xlink="http://www.w3.org/1999/xlink" x="0px" y="0px"
	 viewBox="0 0 100 100" style="enable-background:new 0 0 100 100;" xml:space="preserve">
<g id="Layer_1">
	<title  id="simpleicons-github-icon">GitHub icon</title>
	<path d="M50,28.1c-12.4,0-22.5,10.1-22.5,22.5c0,9.9,6.4,18.4,15.4,21.3c1.1,0.2,1.5-0.5,1.5-1.1c0-0.5,0-1.9,0-3.8
		c-6.3,1.4-7.6-3-7.6-3c-1-2.6-2.5-3.3-2.5-3.3c-2-1.4,0.2-1.4,0.2-1.4c2.3,0.2,3.4,2.3,3.4,2.3c2,3.4,5.3,2.4,6.6,1.9
		c0.2-1.5,0.8-2.4,1.4-3c-5-0.6-10.2-2.5-10.2-11.1c0-2.5,0.9-4.5,2.3-6c-0.3-0.6-1-2.9,0.2-6c0,0,1.9-0.6,6.2,2.3
		c1.8-0.5,3.7-0.7,5.6-0.8c1.9,0,3.8,0.3,5.6,0.8c4.3-2.9,6.2-2.3,6.2-2.3c1.2,3.1,0.5,5.4,0.2,6c1.4,1.6,2.3,3.6,2.3,6
		C64.3,58,59,59.9,54,60.5c0.8,0.7,1.5,2.1,1.5,4.2c0,3,0,5.4,0,6.2c0,0.6,0.4,1.3,1.5,1.1c9-3,15.4-11.4,15.4-21.3
		C72.5,38.1,62.4,28.1,50,28.1"/>
</g>
<g id="_x31_6">
</g>
</svg>
