<?xml version="1.0" encoding="utf-8"?>
<!-- Generator: Adobe Illustrator 22.0.1, SVG Export Plug-In . SVG Version: 6.00 Build 0)  -->
<svg version="1.1" id="_x31_6" xmlns="http://www.w3.org/2000/svg" xmlns:xlink="http://www.w3.org/1999/xlink" x="0px" y="0px"
	 viewBox="0 0 100 100" style="enable-background:new 0 0 100 100;" xml:space="preserve">
<style type="text/css">
	.st0{fill:#F2F2F2;}
</style>
<path class="st0" d="M39.8,50c0-5.6,4.6-10.2,10.2-10.2S60.2,44.4,60.2,50S55.6,60.2,50,60.2S39.8,55.6,39.8,50L39.8,50z M60.6,30
	H39.4c-5.2,0-9.4,4.3-9.4,9.4v21.1c0,5.2,4.3,9.4,9.4,9.4h21.1c5.2,0,9.4-4.3,9.4-9.4V39.4C70,34.2,65.8,30,60.6,30L60.6,30z
	 M39.4,32.3h21.1c4,0,7.1,3.1,7.1,7.1v21.1c0,4-3.1,7.1-7.1,7.1H39.4c-4,0-7.1-3.1-7.1-7.1V39.4C32.3,35.6,35.6,32.3,39.4,32.3
	L39.4,32.3z M62.7,35.3c-1.1,0-2.1,1-2.1,2.1c0,1.1,1,2.1,2.1,2.1c1.1,0,2.1-1,2.1-2.1C64.8,36.3,63.8,35.3,62.7,35.3L62.7,35.3z
	 M62.9,50c0-7.1-5.8-12.9-12.9-12.9S37.1,42.9,37.1,50c0,7.2,5.8,12.9,12.9,12.9S62.9,57.1,62.9,50L62.9,50z"/>
</svg>
