<?xml version="1.0" encoding="utf-8"?>
<!-- Generator: Adobe Illustrator 22.0.1, SVG Export Plug-In . SVG Version: 6.00 Build 0)  -->
<svg version="1.1" id="_x31_6" xmlns="http://www.w3.org/2000/svg" xmlns:xlink="http://www.w3.org/1999/xlink" x="0px" y="0px"
	 viewBox="0 0 100 100" style="enable-background:new 0 0 100 100;" xml:space="preserve">
<style type="text/css">
	.st0{fill:#F2F2F2;}
</style>
<path class="st0" d="M25,50.5v24.6h11.7V48.5v-6.8H25V50.5z M74.8,51.8c-0.8-6.3-3.7-10.3-12.2-10.3c-5,0-8.4,1.8-9.8,4.5h-0.1v-4.5
	h-9.4v6.4v27H53V58.5c0-4.4,0.9-8.5,6.2-8.5c5.4,0,5.8,4.9,5.8,8.9v16.3h10V56.7C75,54.9,75,53.3,74.8,51.8L74.8,51.8z M30.8,24.9
	c-3.3,0-5.8,2.6-5.8,5.8s2.6,5.8,5.8,5.8s5.8-2.6,5.8-5.8S34,24.9,30.8,24.9L30.8,24.9z"/>
</svg>
