<?xml version="1.0" encoding="utf-8"?>
<!-- Generator: Adobe Illustrator 22.0.1, SVG Export Plug-In . SVG Version: 6.00 Build 0)  -->
<svg version="1.1" id="_x31_6" xmlns="http://www.w3.org/2000/svg" xmlns:xlink="http://www.w3.org/1999/xlink" x="0px" y="0px"
	 viewBox="0 0 100 100" style="enable-background:new 0 0 100 100;" xml:space="preserve">
<style type="text/css">
	.st0{fill-rule:evenodd;clip-rule:evenodd;fill:#F2F2F2;}
</style>
<path id="yt" class="st0" d="M74.8,39.5c0,0-0.5-3.6-2-5.2c-1.9-2.1-4.1-2.1-5-2.2C60.7,31.5,50,31.5,50,31.5H50
	c0,0-10.6,0-17.7,0.5c-1,0.1-3.2,0.2-5.1,2.2c-1.5,1.6-2,5.2-2,5.2s-0.5,4.3-0.5,8.5v0.5V52c0,4.3,0.5,8.5,0.5,8.5s0.5,3.6,2,5.3
	c1.9,2.1,4.4,2,5.6,2.2c4,0.4,17.2,0.5,17.2,0.5s10.6-0.1,17.7-0.5c1-0.1,3.1-0.1,5-2.2c1.5-1.6,2-5.3,2-5.3s0.5-4.2,0.5-8.5v-3.3
	V48C75.3,43.7,74.8,39.5,74.8,39.5L74.8,39.5z M58.5,49.4l-13.7,7.4V45.5V42l6.2,3.4L58.5,49.4z"/>
</svg>
