<svg xmlns="http://www.w3.org/2000/svg" viewBox="0 0 506.5 499.5">
  <defs>
    <style>
      .cls-1 {
        fill: #fff;
      }

      .cls-2 {
        fill: #df0000;
      }
    </style>
  </defs>
  <title>AC-Logo</title>
  <g id="Isolation_Mode" data-name="Isolation Mode">
    <g>
      <path class="cls-1" d="M61.3,484.8H49.8l-2.2,5.3H41.7l11.1-24.8h5.6l11.1,24.8h-6Zm-1.8-4.3L55.6,471l-4,9.5Z"/>
      <path class="cls-1" d="M94.8,465.3v24.8H90.1l-12.3-15v15H72.1V465.3h4.7l12.4,15.1V465.3Z"/>
      <path class="cls-1" d="M100.5,479.2V465.3h5.7V479c0,4.7,2.1,6.7,5.5,6.7s5.6-2,5.6-6.7V465.3h5.6v13.9c0,7.3-4.2,11.3-11.2,11.3S100.5,486.5,100.5,479.2Z"/>
      <path class="cls-1" d="M125.1,486.9l3.2-3.8a5.6,5.6,0,0,0,4.6,2.7c2.3,0,3.5-1.3,3.5-4.1V469.9h-8.7v-4.6h14.4v16.1c0,6.1-3.1,9.1-9,9.1A9.7,9.7,0,0,1,125.1,486.9Z"/>
      <path class="cls-1" d="M166.9,485.5v4.6H147.7V465.3h18.8v4.6H153.4v5.4h11.5v4.5H153.4v5.7Z"/>
      <path class="cls-1" d="M190.7,485.5v4.6H171.5V465.3h18.7v4.6h-13v5.4h11.5v4.5H177.2v5.7Z"/>
      <path class="cls-1" d="M200.4,470h-8v-4.7H214V470h-7.9v20.1h-5.7Z"/>
      <path class="cls-2" d="M225.6,477.7c0-7.4,5.7-12.8,13.4-12.8a12.8,12.8,0,0,1,10.2,4.4l-3.7,3.4a7.8,7.8,0,0,0-6.2-2.9,8,8,0,1,0,6.2,12.9l3.7,3.4c-2.3,2.9-5.9,4.4-10.2,4.4C231.3,490.5,225.6,485.2,225.6,477.7Z"/>
      <path class="cls-2" d="M275.8,465.3v24.8H270V480H258.8v10.1h-5.7V465.3h5.7v9.8H270v-9.8Z"/>
      <path class="cls-2" d="M298,484.8H286.5l-2.2,5.3h-5.9l11-24.8h5.7l11.1,24.8h-6Zm-1.8-4.3-4-9.5-3.9,9.5Z"/>
      <path class="cls-2" d="M312.7,470h-8v-4.7h21.6V470h-7.9v20.1h-5.7Z"/>
      <path class="cls-2" d="M334.9,470H327v-4.7h21.5V470h-7.9v20.1h-5.7Z"/>
      <path class="cls-2" d="M370.8,485.5v4.6H351.6V465.3h18.8v4.6H357.3v5.4h11.5v4.5H357.3v5.7Z"/>
      <path class="cls-2" d="M391.2,490.1l-4.8-6.9h-5.3v6.9h-5.7V465.3h10.7c6.6,0,10.8,3.5,10.8,9a8.2,8.2,0,0,1-5.1,7.9l5.5,7.9ZM385.8,470h-4.7v8.6h4.7c3.5,0,5.3-1.6,5.3-4.3S389.3,470,385.8,470Z"/>
      <path class="cls-2" d="M397.5,486.9l3.2-3.8c1.4,1.8,2.8,2.7,4.6,2.7s3.5-1.3,3.5-4.1V469.9h-8.7v-4.6h14.4v16.1c0,6.1-3.1,9.1-8.9,9.1A9.9,9.9,0,0,1,397.5,486.9Z"/>
      <path class="cls-2" d="M439.4,485.5v4.6H420.2V465.3h18.7v4.6h-13v5.4h11.5v4.5H425.9v5.7Z"/>
      <path class="cls-2" d="M463.1,485.5v4.6H443.9V465.3h18.8v4.6H449.6v5.4h11.5v4.5H449.6v5.7Z"/>
    </g>
    <g>
      <polygon class="cls-2" points="361.3 187.3 329.1 243.1 253.3 111.8 96.8 382.8 248.5 382.8 216.2 438.7 0 438.7 253.3 0 361.3 187.3"/>
      <polygon class="cls-1" points="506.5 438.7 246 438.7 283.2 374.2 394.8 374.2 339 277.6 376.2 213.1 506.5 438.7"/>
    </g>
  </g>
</svg>
