<svg id="Layer_1" data-name="Layer 1" xmlns="http://www.w3.org/2000/svg" viewBox="0 0 1727.7 1529.2">
  <defs>
    <style>
      .cls-1 {
        fill: #bf0000;
      }

      .cls-2 {
        fill: #fff;
      }
    </style>
  </defs>
  <title>mansi</title>
  <g>
    <path class="cls-1" d="M7.5,383q47.6,4.7,111.8,49.2,173,123.3,226.5,221.3,23.4,32.4,89.3,146.2c7.8,22.9,14.1,39.8,18.9,50.9q16-22.8,1.8-55.9,18.9-79.8,37.8-130.5c2.7-1.1,3.7-6,3.1-14.7l-2.7,1.1q-12.6,5.5-21.4,48.7l-2.6,1.1-2.3-5.3q23.7-68.6,22.5-91.6Q592.1,391.8,671.4,329.9c-12.8,21.2-18.9,32.6-18.4,33.9l1.2,2.6,2.6-1.1q8.7-3.7,71.9-83.1,6.9-9.3,45.5-29.2l1.2,2.7c2.9,6.6-5.2,17.7-24.1,33.3l2.2,5.3,5,4.1q-6.4,28.8-47.4,63.1c-1.8-4,1.5-8.6,9.8-13.7l-1.5-3.3-7.9,3.4c-17.9,23-27.9,34.9-30.1,35.9l5.2,4.8c7.8-12.3,15.4-20.1,23-23.3q1,2.6-84.3,121.5Q562.2,588.1,537,651.7q-66,196.2-69.3,261.4-9.3,4-1.8,39.3l-14,6.1c-.5-1.4-1.9-9.4-4.1-24.2q-4.7,18.5-15.9,23.4-40.2-78.5-43.2-85.2l-13.2-30.4,5.3-2.3,23.9,55,10.9,18,2.7-1.1-7.2-16.6,6-2.6,1.1,2.7c7.2,27.3,12.7,45.6,16.7,54.9,8.2-16.1,9.9-30,4.9-41.5l-27.3-62.9q-28.7-66.3-82-136.8-9.3,4.1-63.5-86.6l-2.7,1.2,7.2,16.6-5.3,2.3-1.2-2.7q-18.9-43.8-123.8-142.3l-5.3,2.3q34.9,58.8,68.8,120.5,63.4,146.4,98.7,393.2-4.2,82.8,0,188.8-17.8,26-11.6,40.5l-5.3,2.3-2.3-5.3q-26.8,99.8-34.1,102.9l1.2,2.6,11.2-4.8,1.2,2.6q-51,51.3-80.2,63.8c-2.3-5.3-9.8-5.1-22.6.4l-1.2-2.6,1-6.8c-3.7,1.1-13.2-.2-28.5-4.1l-5.3,2.3c-3.4,2-4.4,4.5-3,7.6,3.7-1.1,6.2-.1,7.6,3l-2.7,1.1q-11.3,5-54-12l-2.6,1.2q16.2,21.1,59.6,32.3l-5.9,2.6Q64.3,1424,37.8,1363l-7.2-16.6,2.7-1.2c4.3.3,7.5-.1,9.7-1l-17.7-41.1-3.4,1.4,4.9,11.3-5.3,2.3-2.6-6q-25.8-59.5,19.7-158,31.2-62.2,61.7-75.5l2.3,5.3c-5.8,2.5-14.3,10.6-25.6,24.4l2.3,5.3,6-2.5q9.9-4.3,46-42.8l2.6-1.1,2.3,5.3Q101,1101.9,65,1162.3l4.9,4.2,2.3,5.3q-34.5,40.2-19.9,73.9l-5.9,2.6-1.2-2.6c.7-4.5.7-7.7-.1-9.4l-6,2.5q.4,22.8,10.3,60.1,18.8,28.9,23.1,38.8l2.7-1.2-2.3-5.3a167.4,167.4,0,0,1-14.5-26l5.3-2.3,1.2,2.7c10.7,24.7,25.6,39,44.5,42.9v-7.2q-16.5-16.3-18.6-21l5.3-2.3q35.4,39.8,67.2,26l10.6-4.6q68.3-29.6,95.4-230.2-24.3-259.4-59.9-341.6l-11.8-27.1,2.7-1.2h7.1l-27.3-63q-27.4-63.6-70.6-132.2l-5.3,2.3A611.2,611.2,0,0,1,144,623.7l1.1,2.6-5.3,2.3Q102,541.1,17.4,436.9l5.3-2.3a1011.3,1011.3,0,0,1,71.7,96.5l5.3-2.3-9.4-21.9L14.6,399.6,10.9,391c-5.7,2.5-9.4,2-10.9-1.6C2.8,386.1,5.3,384,7.5,383ZM46,1254.8l6-2.6c1.9,15.4,4,25.5,6.1,30.4l-5.3,2.3Zm10.7,106.3,1.1,2.6c7.3,12.1,12.8,17.3,16.3,15.8l-1.2-2.6-13.6-17Zm11.2-913,7.2,16.6,5.3-2.3-4.9-11.3C74,447.6,71.4,446.6,67.9,448.1Zm3.8,909.6,1.2,2.7c1.1,2.6,7,9,17.7,19l7.9-3.4-1.4-3.3C81.5,1362.1,73.1,1357.1,71.7,1357.7Zm34.4,4.8,1.1,2.6c1.2,2.7,9.1,5.8,23.8,9.4l2.6-1.1-1.1-2.7a36.6,36.6,0,0,0-23.8-9.3Zm25.4,44.1,5.3-2.3c4.5.7,7.8.5,10-.4l2.3,5.3-2.6,1.1C137.8,1410.9,132.8,1409.7,131.5,1406.6Zm4.1-847.7c1.5,3.5,1.4,5.7-.4,6.4l8.7,12.8q4.3,9.9,32.2,67.1l2.7-1.2-20.1-46.4q-2.8-6.6-20.5-39.9Zm1.4,800.4,1.1,2.7c2.4,3.2,5.2,4.1,8.3,2.7l2.6-1.1-1.1-2.7c-1.5-3.5-4.3-4.4-8.3-2.7Zm6.1-872.1,1.1,2.6c9.9,13.1,16.8,18.7,20.8,17l-3.5-8C151.9,489.9,145.7,486,143.1,487.2Zm1.7,145.6,5.3-2.3,15.5,35.8-5.3,2.3Zm1.3,754.9q5.1,11.8,45.6-.1c9.7-9,16.2-14.1,19.3-15.5l-2.3-5.3-21.9,9.5A166.4,166.4,0,0,1,146.1,1387.7Zm14.7-26.1,6.4.4,11.3-4.9c3.5-1.5,4.5-4.1,3-7.6l-6.5-.4-11.2,4.9C160.4,1356,159.4,1358.5,160.8,1361.6Zm4.4-688.9,5.3-2.3,10.7,24.5-5.3,2.3Zm58.5,645.1,1.4,3.4c13.5-14.8,20.2-26.6,20-35.5l-2.3-5.3C240.2,1281.6,233.8,1294,223.7,1317.8Zm13.4-493.7,29.6,97.4,5.3-2.3-28.9-97.7Zm1.5-49.4,4.6,10.6,2.6-1.1-4.6-10.6ZM255.8,949c8.5,49.8,14.1,77.9,16.8,84q8.5-3.6-4.3-62.6l-9.8-22.5Zm5.4,297.5c2,3.3,4.5,4.3,7.6,3l.3-6.4Zm4.3,86.3,2.7-1.2c1.5,3.5.5,6.1-3,7.6l-2.7,1.2C261.4,1336.6,262.4,1334.1,265.5,1332.8Zm7.9-681,5.3-2.3,6.1,13.9-5.3,2.3Zm13.3,23.4,5.3-2.3,4.9,11.2-5.3,2.3Zm11,18,5.3-2.3,7.2,16.6-5.3,2.3Zm14.7,26.7,5.9-2.6,13,29.8-6,2.6Zm18.1,34.6,6-2.5,10.6,24.5-5.9,2.6Zm.4-30,5.3-2.3,3.7,8.6-5.3,2.3Zm11,18,5.3-2.2,4.8,11.2-5.3,2.3Zm8.3,48.4,5.3-2.3,14.4,33.1-5.3,2.3Zm11-11.1,5.9-2.6,4.9,11.3-6,2.6Zm4-50.5,1.2,2.6q53.1,99,71.7,142l5,4.2c-1.1,7.3-.4,13.6,1.9,18.9l1.1,2.6,2.7-1.1c3.5-1.6,4.5-4.1,3-7.6l-18.1-41.8L417,817.8l2.6-1.1Q371.2,726.7,365.2,729.3ZM377,809.2l6-2.6,33.3,76.8-6,2.6Zm9.3-69.4,1.2,2.7q8.8,20.6,45.7,91.1l2.7-1.2-14.4-33.1C403.4,757.4,391.6,737.5,386.3,739.8Zm117.5-37.5,2.7-1.2Q551.9,586.2,602.7,480l-5.3,2.3q-34.2,51.9-77.7,160.4Q498.4,689.7,503.8,702.3ZM603,473.6l1.2,2.6,2.6-1.1c6.9-7.2,9.9-13,9.1-17.3l-1.2-2.7C605.4,463.9,601.5,470.1,603,473.6ZM848.8,190.8l1.1,2.7,4.2-5c3.9-.6,6.5.6,7.9,3.7Q826.9,235,771.4,380.9,700.9,588.7,689,693.7,663.8,792,676.7,988.6q16.9,91.8,59.1,189.2,38,87.5,194.9,150c45.6,6,71.2,7.7,77,5.2l2.6,6-5.3,2.3,1.1,2.6a542.7,542.7,0,0,0,111.2.6q4.7,10.6,82.3,2.9,95,3,148.6,26.9l86.4,41.3,2.6-1.1c-.9-2.2-1.3-5.5-1.1-9.8a22.8,22.8,0,0,1-7.2-9.4c4-1.8,1.5-22.5-7.3-62.2-4.4,1.9-5.2,7.8-2.6,17.6l-5.2,2.3-1.5-3.3q18.8-112.8,44.8-198c11.7-8.2,15.3-17.4,10.9-27.6l-10.9-1.5q-17.7,64.4-36.4,103.1l-2.6,1.1-1.2-2.6q77.5-187.8,38.8-277.3l-5.3,2.3c11,25.2,11.2,70.7,1,136.5l-3.5-7.9q8.8-84.9-6.9-121.4-18.1-41.7-102.7-79c-17.2-.9-28-.5-32.4,1.4l-5.3,2.3q-46.8,44.7-62.9,102-8.4,71.4-.1,114.2l-5.3,2.3q-27-62.2-.2-136.8l6.7-51.7-2.7,1.1q-39.7,17.3-22.6,165.6c6.3,14.6,6.6,23.1.8,25.6l-4.9-4.1-4.6-10.6q-2.8-6.6-9.5-74.6c-3.1,1.3-4.5,18.2-4.1,50.5l-5.3,9.5-2.7,1.1h-7.1l1.1,2.7a84.7,84.7,0,0,0,20.8,17l2.3,5.3-2.7,1.1c-8.8.2-15-3.7-18.4-11.7l-2.7,1.2,2.3,5.3-2.6,1.1q-57.5-32.5-75.9-31.6l-2.6,1.1,1.1,2.7a156.2,156.2,0,0,1,29.8,16.2l1.2,2.6-2.7,1.2q-74.5-32.2-122.2-11.6c-1.7-4-4.4-5.2-7.9-3.6l-11.3,4.8q-27.2,11.8-69.7,86.1c-6.2,2.7-9.5,14.9-10.1,36.6l-3.3,1.5-1.1-2.7q-10.7,4.6.8,54.7l-2.6,1.2c-3.6,1.5-6.1.5-7.6-3q-22.1-51,7.7-140.3,34.8-70.2,119.7-106.9,114.1-7.1,129.4,28.1c4-1.7,8.6,1.8,14,10.5l6-2.6q-11.6-84.7,33.7-154.7,51.9-57.9,85.8-72.6c1.9,3.4,4.4,4.4,7.6,3l5.6-8.7,8.6-3.8c40.6-17.6,76.9-19.3,108.6-5.3q70.5,13.5,86.5,50.6c6.3-1.1,14.4,9.6,24.1,32.1q28.2,64.9,5.4,215.7,4.8,11.3-49.5,170.9-15.9,152.4-5.8,175.6l-6.4-.3-2.7,1.1q4.6,34.2,12.7,52.8l-2.7,1.1q-162.2-92.5-310.1-100.1-68.8-7.9-149.4-6.9-24.6-5.8-67.9-6-94.7-18.7-138.9-73.6-63.9-49.4-120.2-179.2-16.4-66.9-18.9-72.9l-11-18c5-4.3,7.1-7.3,6.3-9.1l-7.5-10.1q-7.9-69-12.4-170.1l-2.6,1.1c-2.2,1-3.2,18.7-2.9,53.2-2.7,1.2-4.9,6.3-6.7,15.5l-2.3-5.3q-10.9-107,26.9-337.4,6.9-67.5,104.4-269.5l15-32.5-1.1-2.7c-7.1,3.1-11.5,2.6-13.2-1.3Q782.5,268.4,848.8,190.8ZM638.5,953.2l3.5,7.9-5.3,2.3-1.2-2.6C634.4,957.1,635.4,954.5,638.5,953.2Zm-1.3,42.3,5.3-2.3,1.1,2.6,3.4,15.1-5.3,2.3Zm21.4-266.6,2.6,5.9,7.9-3.4q4-50.5,29.6-149.7-4.1-9.3,36.3-126.8c9.5-22.9,12.6-38.2,9.3-45.7l-2.6,1.2Q678,588.3,670.6,674.9,662.6,678.4,658.6,728.9Zm15.8-406.6,5.3-2.3c1.5,3.5.5,6-3,7.6l-5.3,2.3C670.3,326.1,671.3,323.6,674.4,322.3Zm6,811,5.9-2.5,3.5,7.9-6,2.6ZM796,227.1l2.7-1.2,2.3,5.3-8.6,3.7Q791.4,229.1,796,227.1Zm12.2,20.7,1.1,2.6c2.8-3.3,5-5.3,6.8-6.1l-2.3-5.3-2.6,1.2C807.8,242.2,806.8,244.7,808.2,247.8ZM956,1355.4l1.2,2.7a139.2,139.2,0,0,0,54.2,12.6l5.3-2.2C1015.8,1366.3,995.5,1361.9,956,1355.4Zm3.7-291.2h7.1c11.1-13.2,21.3-21.8,30.5-25.8l11.3-4.9c27-5.4,41.9-8.7,44.5-9.8-2.5-5.8-15.5-5.6-39.1.4l-17.8,11.6-1.5-3.3C969.8,1050.2,958.2,1060.7,959.7,1064.2Zm6.4,7.5,1.1,2.7,11.3-4.9-1.2-2.7Zm55-23.8-.4,6.4c23.8-1.9,37.3-3.5,40.4-4.9l.3-6.4C1050.3,1041.5,1036.8,1043.2,1021.1,1047.9Zm61.3,321.2c1.7,4,5.2,4.9,10.5,2.6l2.6-1.2-1.4-3.3Zm34.2-11.7,3.8,8.6q86.4-7.5,164.4,20.1l12.5-2.3q-56.1-27.6-142.2-26.5Zm65.5-321.1,6-2.5c-2.3-5.3-1.8-16.3,1.4-33l-2.5-5.9-2.7,1.1C1179,998.3,1178.3,1011.8,1182.1,1036.3Zm.2,338.3,1.2,2.7q59.3,2.5,195,52.4,1.9,4.6,75.8,38.7l-5.7-13.2q-42.4-23.4-124.2-54-125.6-33.7-139.4-27.7Zm.1-390.3,1.1,2.6,2.7-1.1c3.1-1.3,4.3-6.3,3.7-15l-2.6,1.1C1184.6,973.1,1183,977.2,1182.4,984.3Zm60.5-49.1,5.3-2.3c16.3-29.1,24.3-45.6,24.1-49.8l-1.1-2.6-2.7,1.1C1254.4,887.8,1245.9,905.6,1242.9,935.2Zm12.5-67.5,2.6,5.9,11.2-4.9-2.6-5.9ZM1287,828c2.5,5.8,3.5,12.9,3,21.5l2.7-1.1,2.5-10.6-4.9-11.2Zm14.3,33.1,1.2,2.7Q1405.3,883,1424.8,928c3.9-1.7,5.2-4.3,3.6-7.8q-18-41.9-88.2-60.2c-4.7-8.4-16.6-8.5-35.5-.3Zm30.3,527.5,1.1,2.7c8.3,3.2,13.1,6.4,14.4,9.5l2.6-1.2-3.4-7.9Zm20.8,9.9,1.4,3.3c46.2,23,71.3,33.7,75.3,31.9l-1.2-2.6c-33.1-18.2-57.4-29.4-72.9-33.8Zm89.5-145.8,1.1,2.7,2.7-1.2q18.6-40.4,52.5-149.4,15.5-33.5,20.6-110.5l-2.7,1.2q-12.7,79.5-52.4,202.1C1459.2,1199.5,1452,1217.9,1441.9,1252.7Zm22.5,150,1.1,2.6,6-2.5-3.7-8.6C1464.2,1396.7,1463,1399.6,1464.4,1402.7Zm11,47.2,5.3-2.3,1.1,2.6c-.2,4.3.1,7.3.8,9.1l-5.3,2.3A23.1,23.1,0,0,0,1475.4,1449.9Zm3.9-359.8c4.8-2.1,10.3-31.7,16.5-89q6.6-68.1-8.6-103.3-4.4,2.7,5.4,72.5Z" transform="translate(0 -7)"/>
    <path class="cls-1" d="M890.4,568.6c5.7-2.5,19.9-6.5,42.7-12.2l1.4,3.3c-2.2,1-13.3,4.5-33.2,10.5q-50.7,28.3-66,47.5l1.7,4,87.9-51.5a209.3,209.3,0,0,0,29.3-10.4l1.5,3.4-17.9,7.7.8,2c2.7-1.2,14.3-3.3,35-6.5l.5-4.2-.8-2c-3.6,1.6-5.9,1-7-1.6l3.3-1.5q3.3-1.4,18,7.2c-.3-14.1,2.4-22.3,8.2-24.8a1.9,1.9,0,0,0,2.8,1.1c-.2,8,1.3,19.9,4.5,35.8q.1,49.5,29.2,116.4l3.2,7.3q67.1,120.4,102.9,104.9c2.4-.4,4.1.4,5,2.6-3,3.9-5.4,6.3-7.2,7a1.9,1.9,0,0,0-2.8-1.1l.8,2q4.3,9.9,43.2-2.2c.5,1.4,2.9,1.9,7,1.7.4,8.2-2,13.5-7.3,15.8l-32.3,3.7-1.9.9.5,1.3c8.1,2.8,12.3,4.7,12.7,5.5l-3.4,1.5a185.8,185.8,0,0,0-41.5-3.3c-13.2-3.7-34.4-17.1-63.8-40l-3.3,1.4c-18.5,42.1-28.1,65.2-29,69.3l-4,1.7,3.7,3.1q3.5,8-64.7,59.5-57,24.8-137.8-5.6c-11,4.8-23.6-6-37.6-32.5-2.3-5.3-7-13-14-23.1l-10-23.1q-35.4-81.6,34.5-192.8Q847.3,587.4,890.4,568.6ZM756.9,856.2l7.4,11.8,3.3-1.5L760,834.4c-1.3.6-3.9-.4-7.6-3,.6-10.7,1.5-19,2.7-24.7l-5.8-7.8-1.9.9Q740.2,810.8,756.9,856.2Zm-2-64.4,1.3-.6c3.8-10.5,4.6-18.5,2.3-23.8l-.9-2-1.3.6C752.8,767.5,752.3,776.1,754.9,791.8Zm24.3,76,15.7,27.1,3.9-1.7c-8.9-17.1-15.3-29.9-18.9-38.3l-.9-2C776.8,853.9,776.9,858.9,779.2,867.8ZM895.8,610.3l-17.1,5.9q-55.8,45.4-72.3,85.6-9.1,13.4-19,63.3l-1.1,32,2.3,5.3c1.2,2.6,4.8,2.6,11-.1l1.4,3.3-11.2,4.9,2.7,9.9,7.4,17.2q12.9,6.1,30.3,31.7c8.7,3.1,17.5,9,26.5,17.6q19.6,7.4,54.5,4c1.3,3.1,7.2,3.4,17.7,1l5.3-2.3-3.5-13.5,5.3-2.3c2.9,6.7,7.9,10.3,15,10.9,25.2-16.7,41.7-33.8,49.3-51.3q22.2-56.1,3-100.4Q973,641.3,968.9,593.6c4.5-8.8,5.5-16.3,2.8-22.4-7.6.6-17.5,3.6-29.9,9C912.6,592.8,897.3,602.9,895.8,610.3Zm-95,34.9.8,2,5.3-2.3c5.6-4,8-7.1,7-9.3l-2,.8C808,640.8,804.3,643.7,800.8,645.2Zm28.5,271,.5,1.3c1.6,2.4,6.8,4.7,15.5,6.7,2.7-1.2,3.4-3.1,2.3-5.7-1.4.5-6.8-.5-16.4-3.2Zm16.2-284.1.8,2,6-2.6c1.6-2.2,3.1-3.7,4.4-4.2l-.5-1.4-5.3,2.3A20.1,20.1,0,0,1,845.5,632.1ZM854,924.3c2.9,3,7.2,3.2,12.9.7-.7-1.7-3.3-2.7-7.6-3Zm23.2-10-.5,4.1c8.6.5,19.6-.1,33.1-1.7l.5-4.2C889.6,913.1,878.6,913.7,877.2,914.3Zm2.5,20.2.6,1.3c1.7-.8,4.7-.5,9,.8l5.3-2.3-.9-2c-2.2,1-6.2,1.4-12,1.3Zm35.5-5.2.9,2,18.7-5.8,7.3-3.1a87.5,87.5,0,0,0,30.6-22l-1.7-4-2,.9Q956.9,907.4,915.2,929.3Zm4.7-14.6,1.4,3.3,12.6-5.5-1.4-3.3Zm6.6,20.7.6,1.3,8.1-1.1,12.6-5.5-.8-2c-8,3.5-14.1,5.6-18.5,6.4Zm55.5-364,1.8,9.5c2.6-1.2,3.2-4.8,1.6-10.9Z" transform="translate(0 -7)"/>
    <path class="cls-1" d="M1245.8,406.7l9.3-4c1.8-.7,4.3.3,7.6,3l.9,2c-4.1.2-6.5-.3-7-1.7l-3.2,3.7-10.6,4.6.9,2c1.3,3.1,8.3,2.7,20.8-1.1l2-.9-2.9-6.6c2.2-.9,4.1.3,5.6,3.9-.4,2.8-.3,4.8.3,6.1q61.8,11.9,94.8,88,35.9,82.8,41.2,220.6l-1.9.8-3.1-3.4-2.9-6.6v-3.9l-1.3.6c-2.8,4.4-3.3,17.7-1.5,40l-4,1.7-5.2-22.9-.9-2-2,.9c.8,1.8.6,11-.5,27.8l-3.3,1.4c-2.1-20.6-3.7-56.1-4.5-106.6q-14.1-61.6-26.2-89.4l-6.6-15.3a1.9,1.9,0,0,1,1.1-2.8l-3.4-2.5-4.6-10.6q-37.3-68-72.9-62.8c-3,.2-10.1,2-21.3,5.3q-61.5,26.7-63.2,133.6,2.8,6.6,9.2,232.1l-2,.8-3.4-2.4c-.2-19.8-1.2-32-3.2-36.4l-1.3.6c-3.6,23.1-6.6,35.6-8.8,37.6-2.3-1.6-3.8-3.1-4.3-4.4-1.5-100.1-4.3-155.2-8.7-165.4l-.9-2-2,.9q3.8,43.2,6.4,101.9l-5.3,2.3q-2.2-159.6-51.4-272.9a63.5,63.5,0,0,1-6.4-11.3c-1.2-6.4-.9-9.9.9-10.7,5.3,8.7,9.1,12.6,11.3,11.6l2-.8c-2.5-5.7-2.7-9.1-.4-10.1,5.1,4.6,10.9,14.4,17.4,29.5l.9,1.9,2.4-3.4a4.2,4.2,0,0,1,5.1,2.6,130,130,0,0,0,5.5,16.4q33.6-75,86.5-109.1C1233.7,413.3,1240.1,409.2,1245.8,406.7Zm-97.9,129.8,1.7,4c9.8-18.4,15.3-31.3,16.3-38.5l-.8-2-3.4,1.4C1160.2,502.6,1155.5,514.3,1147.9,536.5Zm6.6,49.9,1.9,13.3,3.3-1.4-1.2-13.6Zm48-125.5,3.9-1.7c12.8-12.8,19.3-20.4,19.4-22.5l-1.8-4C1215.6,436.3,1208.5,445.8,1202.5,460.9Zm28.6-26.5.5,1.3,3.4-1.4,8.7-5.4-1.8-3.9-9.2,4C1230.6,430.4,1230.1,432.2,1231.1,434.4Zm13,21.1.9,2c9.9-.1,15.3-.4,16.2-.8l2-.8-.9-2c-8.6-.5-14-.2-16.2.7Z" transform="translate(0 -7)"/>
    <path class="cls-1" d="M1467.1,312.7l8.6-3.7c26.9-11.7,58-17.5,93.1-17.6l2,4.7c-3.1,1.3-3.9,3.5-2.6,6.6-16.1,1.7-26.3,3.5-30.7,5.5q-94.8,40.9-103.2,95.8l8.6,19.9c2.5,5.8,25.5,3.4,69.2-7.2,1,2.2,10.9,1.4,29.6-2.6q68.7,2.5,90,51.5c1.7,8.8,3.3,14.9,4.8,18.4l-4,1.7-10.3-23.8-4.6,2,11.2,25.8,7.5,4.6.8,2c7.8,38.6,6.6,67.8-3.8,87.5q-3.5,17.3-85.3,93.6-105.4,36.3-120.1,2.5l2-.9c22.3,9.2,35.9,12.8,40.8,10.6-.7-2.8.2-4.8,2.9-5.9l11.4-2.6-.8-2c-5.6-4.4-10.4-5.8-14.4-4l-2-4.7,2-.8q24.8,2.5,54.6-10.3c18.5-8.1,41.2-35.2,67.8-81.3,7.6-31.1,7-56.6-1.6-76.5l-2-4.6-2.7,1.2c-2.6,1.1-2.3,5.4,1,12.9l-4.7,2c-6.7-15.4-29.2-28-67.4-37.6l-30.5,13.2q-17.2,7.5-41.1,12.3a1.8,1.8,0,0,1-1.2,2.8q-50.9-10.2-54-17.5l-2-4.6c-.7-2.8.1-4.7,2.3-5.7l2.6-1.2c5,11.5,17.6,17.1,37.9,16.7l-.8-2c-18.4-7.3-33-19-43.7-35.4l-4.6,2-.9-2q8.5-78.5,43.2-109.2Q1432.2,335.7,1467.1,312.7Zm-54,124.1-1,5.2q4.7-2.1,8.4,6.6l2-.9-3.7-8.6C1417.6,436.4,1415.7,435.7,1413.1,436.8Zm27.9-90c.9,2.3-6.7,12.6-22.8,31.1l2.6,6c9.6-13,30.3-30.5,62.4-52.2l-2-4.6C1462.3,336.8,1448.9,343.4,1441,346.8Zm-5.3,118.8.9,2c11.3,5.5,20.3,6.9,26.9,4l2.7-1.1-2-4.7c-3.1,1.4-11.9,1-26.5-1.1Zm17,15.4,2,4.7,8.6-3.8c-1.3-3-3.6-3.9-6.7-2.6Zm7.6,202.9,6.6-2.9,2,4.7-1.9.8C1463.8,687.9,1461.6,687,1460.3,683.9Zm11.6-205.7,1.7,4,11.8-1.9,6.6-2.9,10.1-7.6c-1.1-2.6-3.3-3.3-6.3-1.9Zm.3-28.4c.9,2.2,4.1,3.5,9.5,3.7l4.6-2-2-4.6Zm52,18.3,1.2,2.7c18,9,29,12.6,33,10.9l-.9-2q-4.5-10.6-26.7-14.4Zm18,190.5,2,4.7,10.4-6.9,6-2.6-1.2-2.6-3.7-3.1Q1548.8,655.8,1542.2,658.6Zm63.6-109.3c-1.4,9-1.1,15.7.8,20.1l2-.9c4-1.7,4.9-8.1,2.7-19.3Zm8.6-9.3,3.8-22.1,2-.8,3.7,8.6,4.6-2-4.6-10.6c-1.7-4-6.1-10-13.2-17.9Q1600,499.9,1614.4,540Z" transform="translate(0 -7)"/>
    <path class="cls-1" d="M1557.8,71.9c22-2.6,41.2,1.9,57.8,13.5q16.8,18.8,22.8,16.2Q1684.2,22,1718.6,7q1.1,2.7-50.9,78.7-15,30.9-13.5,34.2,52.5,68.5,60.8,87.7l-4,1.8q-45.6-56.6-62.3-71.4c-8,3.5-18.5,28.8-31.7,75.9l-13.2,5.7q-5.5-30.6,14.6-73.2c6.7-12.4,9-21.2,6.7-26.5-8.5-7.3-30-17.7-64.6-31l-4.9-11.3C1554.9,74.8,1555.6,72.9,1557.8,71.9Zm105.7,160.4,4.7-2c6.7,19.1,10.7,30.2,12.1,33.3,4.7-4.7,6.4-8.8,4.8-12.3l4-1.8,4.9,11.3c1.5,3.5,6.5,9,14.9,16.4q24.4,139.7,17.2,217.6-6.3,103.4-39.4,117.8l-13.3,5.7-2-4.6c8.4-3.7,16.2-33.5,23.4-89.6q8.9-70.1-2-164.4l-3.1-14.4-.9-2-2.6,1.2q12.6,105.5-1.2,204.3l-2-4.7q11.6-122.1-10.3-261.5Zm29.9,79.9,1.2,2.6,2-.8c-1.7-12.4-3-19.7-4-21.9C1689.5,293.4,1689.8,300.2,1693.4,312.2Zm12,129.4q-1.8,32.3-.9,34.2l.9,2,2-.9q3.8-27.6.9-34.2l-.9-2Zm6.3,103.5,1.7,3.9c5.2-12.2,6.3-25.5,3.2-39.9C1715.3,509.7,1713.6,521.7,1711.7,545.1Z" transform="translate(0 -7)"/>
  </g>
  <g>
    <path class="cls-2" d="M291,727.1l-2.6,1.2L281,711.2q5,15.8,9.6,32.4c.4-4.8.8-9.7,1.3-14.5Z" transform="translate(0 -7)"/>
    <path class="cls-2" d="M1388.8,1329.5c-7.2,5.7-14.6,11.2-22,16.6l20.4,9.8-2.1-4.7,1.5-8.6C1387.3,1338.2,1388.1,1333.9,1388.8,1329.5Z" transform="translate(0 -7)"/>
    <path class="cls-2" d="M1551.2,341.4q-32,14-52.1,28.9,8.3,10.3,16.2,21l16.7-4.1,1.7,4,4.4-.9,3.5-.8,3.6.2c19.2.7,35.5,3.8,49.3,8.6q-18.9-29.7-40.5-57.5Z" transform="translate(0 -7)"/>
    <path class="cls-2" d="M328.4,566.3c94.2-262.7,345.6-451,640.2-451,182.1,0,347.7,71.9,469.9,188.8l15.3-10.2,2.2-1.4,10.9-4.7a230.6,230.6,0,0,1,31.3-10.9c-1.9-1.8-3.7-3.7-5.6-5.6A741.4,741.4,0,0,0,285.9,506.8c-1.6,3.8-3.2,7.7-4.7,11.5Q307.5,542.8,328.4,566.3Z" transform="translate(0 -7)"/>
    <path class="cls-2" d="M1694.3,645.6l-34.9,15.1-14.6-33.9c-3.8,4.5-8.2,9.6-13.6,15.4a680,680,0,0,1-67.3,481.5c-1.8,8.1-4.5,18.1-8.1,30.6-8.1,28-21.1,68.3-38.6,119.8-.8,7.5-1.5,14.7-2.2,21.6a737.5,737.5,0,0,0,194.6-500.5,749.4,749.4,0,0,0-14.8-148.5Z" transform="translate(0 -7)"/>
    <path class="cls-2" d="M1212.7,1429.9a675.5,675.5,0,0,1-244.1,45.3c-280.1,0-521.2-170.3-625.2-412.8-.9,40.7-.4,85.3,1.5,133A741.9,741.9,0,0,0,1257.1,1478c18.7-7.9,37-16.6,54.8-25.9A578.7,578.7,0,0,0,1212.7,1429.9Z" transform="translate(0 -7)"/>
  </g>
</svg>
