<svg id="Layer_1" data-name="Layer 1" xmlns="http://www.w3.org/2000/svg" viewBox="0 0 1977.8 130.8">
  <defs>
    <style>
      .cls-1 {
        fill: #ffffff;
      }
    </style>
  </defs>
  <title>sept10</title>
  <g>
    <path class="cls-1" d="M114.2,54.9a29.5,29.5,0,0,1,5.1,3.6,15.5,15.5,0,0,1,4,4.5,16,16,0,0,1,1.8,5.6,12.4,12.4,0,0,1-.8,6.2,16.2,16.2,0,0,1-3.1,5.4,32.7,32.7,0,0,1-4.7,4.4,50.7,50.7,0,0,1-5.4,3.6l-5.4,2.9a80.1,80.1,0,0,1-12,5.1,64.1,64.1,0,0,1-13,2.8,52.2,52.2,0,0,1-13.1-.1,42.2,42.2,0,0,1-12.4-3.7A31,31,0,0,1,50,92.1a26.7,26.7,0,0,1-4.5-4.4,19.1,19.1,0,0,1-3.3-5.2,14.5,14.5,0,0,1-1.4-5.8,10.2,10.2,0,0,1,1.7-6.1,16.6,16.6,0,0,1,4.3-4.5A31.9,31.9,0,0,1,52.6,63a40.2,40.2,0,0,1,6-1.8,72.9,72.9,0,0,1,14-2.2,80.5,80.5,0,0,1,13.9.4,54,54,0,0,1,7,1.3l6.8,1.9a42.2,42.2,0,0,1,6.5,2.7c2,1,4,2.2,6.1,3.4a2,2,0,0,1,1,2c-.1.8-.7,1-1.9.6l-7.1-2.1a61.1,61.1,0,0,0-7.4-1.7L90,66.3a63.4,63.4,0,0,0-7.6-.4,59.5,59.5,0,0,0-7.3.1,63.1,63.1,0,0,0-7.6,1,36.2,36.2,0,0,0-7.3,2.2,24.8,24.8,0,0,0-6.3,3.7,7.3,7.3,0,0,0-3.1,4.6,8,8,0,0,0,.6,4.8,10.5,10.5,0,0,0,3.1,4.2,16.1,16.1,0,0,0,4.5,3,24.2,24.2,0,0,0,10.7,2.2,55.4,55.4,0,0,0,11-1.1,70,70,0,0,0,12.9-3.8,72.6,72.6,0,0,0,12.1-6.2,42.9,42.9,0,0,0,4.3-3.2,29.5,29.5,0,0,0,4.2-4.5,11.5,11.5,0,0,0,2.2-5.1,6.7,6.7,0,0,0-1.9-5.2,10.6,10.6,0,0,0-2.6-2,16.9,16.9,0,0,0-3.1-1.3l-3.2-1-3-.9L89.4,53.3a23.6,23.6,0,0,1-5.2-2.1,18.9,18.9,0,0,1-5.1-3.4,9.7,9.7,0,0,1-2.8-4.6c-.5-1.7.1-3.6,1.6-5.5a21.5,21.5,0,0,1,9.2-7.2,37.8,37.8,0,0,1,11.3-3.2,24.2,24.2,0,0,1,5.8.4,19.2,19.2,0,0,1,5.8,2.1,12.5,12.5,0,0,1,4.2,3.7,7.7,7.7,0,0,1,1.2,5.6c-.1.9-.4,1.5-1.1,1.6a3.6,3.6,0,0,1-2-.3,8,8,0,0,1-2.1-1.3,2.8,2.8,0,0,1-1.1-1.6,4.7,4.7,0,0,0-2.2-2.7,10.5,10.5,0,0,0-3.6-.6,17.8,17.8,0,0,0-3.9.7L96,36l-2.8,1.2a37.2,37.2,0,0,0-3.9,2.1A18.1,18.1,0,0,0,86.1,42q-1.3,1.5-.9,2.7a2.6,2.6,0,0,0,1,1.1,7.6,7.6,0,0,0,1.6.6l1.8.5a3.7,3.7,0,0,1,1.5.5,24.5,24.5,0,0,1,4.1,1.2l4.2,1.3,7.6,2.2A44.8,44.8,0,0,1,114.2,54.9Z" transform="translate(-40.8 -13.3)"/>
    <path class="cls-1" d="M261.1,63.9a2.9,2.9,0,0,1,1.6.5,7,7,0,0,1,1.6,1.3,2.2,2.2,0,0,1,.6,1.4c.1.4-.3.8-1,1.1a44.4,44.4,0,0,1-6.2,1.9l-6.3,1.3L245.3,73l-6.1,1.4-11.9,3.4-12,3.6c-7.1,2.1-14.2,4-21.4,5.9a178.6,178.6,0,0,1-21.6,4.1l-5.1.7a47.3,47.3,0,0,1-5.3.4,45.1,45.1,0,0,1-5.2-.1,18,18,0,0,1-5-1.1,12.6,12.6,0,0,1-3.9-2.3,10.7,10.7,0,0,1-2.7-3.4,9.7,9.7,0,0,1-1.2-4.1,11.5,11.5,0,0,1,.8-4.6,15.9,15.9,0,0,1,5.8-7.4,34.2,34.2,0,0,1,8.5-4.7c1.4-.5,2.9-.8,4.5-1.2a25.9,25.9,0,0,1,4.8-.4,16.3,16.3,0,0,1,4.5.9,8.9,8.9,0,0,1,3.8,2.3,7.2,7.2,0,0,1,2,4,5.7,5.7,0,0,1-.9,3.6,7.8,7.8,0,0,1-2.8,2.9,7.6,7.6,0,0,1-4,1.5A13.5,13.5,0,0,1,164,78a20.6,20.6,0,0,1-6.3-3.1,28.5,28.5,0,0,0-4.2,4.3,5.7,5.7,0,0,0-1.2,5.2,2,2,0,0,0,1.7,1.4,16.9,16.9,0,0,0,3.3.3l3.6-.4a12.5,12.5,0,0,1,2.4-.2c5.5-.6,11-1.4,16.4-2.5s10.8-2.5,16.2-3.9l16-4.7,16.2-4.7,16.4-4.3A52.2,52.2,0,0,1,261.1,63.9Zm-90.7,5.9H169l-1.3.3a14.9,14.9,0,0,0-4.9,1.6,8.7,8.7,0,0,0,3.8.8,4.6,4.6,0,0,0,3.5-2.1Z" transform="translate(-40.8 -13.3)"/>
    <path class="cls-1" d="M357.2,68.3a2.3,2.3,0,0,1,.1,2.5,2.1,2.1,0,0,1-2.1,1.3h-.3a6.8,6.8,0,0,1-3.8-1.2,20.9,20.9,0,0,0-7.5-.1c-2.7.4-5.2.8-7.3,1.3s-5.4,1.2-8,1.9l-7.8,2.3c-2.6.7-5.2,1.5-7.6,2.4s-5,1.9-7.4,3l-3.1,1.5L299,84.8a8.3,8.3,0,0,1-2.8,2.8,22.2,22.2,0,0,1-3.8,1.8,38.1,38.1,0,0,1-13.2,2.3,35,35,0,0,1-13.3-2.6l-2.4-1.5a2.4,2.4,0,0,1-1.1-2.4,1.7,1.7,0,0,1,1.6-1.6,6.5,6.5,0,0,1,2.4.1A36,36,0,0,0,279.2,85a41.9,41.9,0,0,0,5.6-.8,12.9,12.9,0,0,0,5.2-2.3,3.2,3.2,0,0,0,1.3-1.5,4.2,4.2,0,0,0,.6-2.1,3.4,3.4,0,0,0-.4-2,2.8,2.8,0,0,0-1.5-1.5,8.9,8.9,0,0,0-5.4-.7l-5.4,1.2a42.3,42.3,0,0,0-9.2,4.1c-2.9,1.7-5.7,3.5-8.5,5.5-1.2,2.5-2.4,5-3.7,7.3l-4,7c-2.8,4.4-5.7,8.8-8.6,13l-9,12.7-4.3,5.7c-1.4,1.9-2.9,3.7-4.6,5.6a27.9,27.9,0,0,1-1.9,2.4,27.5,27.5,0,0,1-2.2,2.6,15.1,15.1,0,0,1-2.6,2,5.2,5.2,0,0,1-3,.8,7.4,7.4,0,0,1-6.7-7.2,15.5,15.5,0,0,1,.8-6.4c.8-2.1,1.6-4,2.4-5.8a55.4,55.4,0,0,1,7-11.4q4.1-5.4,8.4-10.2a155.1,155.1,0,0,1,19.4-18.6l3.4-2.8,3.7-2.8,4.8-10.5a2,2,0,0,1,1.5-.9,4.1,4.1,0,0,1,2.1.5,8.3,8.3,0,0,1,1.8,1.3,2.4,2.4,0,0,1,.6,1.5,3.6,3.6,0,0,0-.4.9,1.9,1.9,0,0,1-.2.8l2.5-1.3,2.6-1a39.9,39.9,0,0,1,6.4-1.8,30.3,30.3,0,0,1,6.7-.5,22.7,22.7,0,0,1,6.5,1.2,15.9,15.9,0,0,1,5.6,3.8,17.7,17.7,0,0,1,2.7,3.7l3.2-1.3a188.7,188.7,0,0,1,17.8-6.4l9.6-2.5a53.8,53.8,0,0,1,9.9-1.6l4.5-.5a26.6,26.6,0,0,1,4.9.1,21.2,21.2,0,0,1,4.5,1.2A8.8,8.8,0,0,1,357.2,68.3ZM225.7,125.7c2.4-2.9,4.6-5.9,6.8-8.9s4.3-6.1,6.4-9.1l2.9-4.2,2.7-4.3-.5.4-.5.4c-2.5,2.6-4.9,5.3-7.3,7.9s-4.7,5.5-7,8.3-3.7,5.3-5.5,8.1a37.4,37.4,0,0,0-4.2,8.8A62.3,62.3,0,0,0,225.7,125.7Z" transform="translate(-40.8 -13.3)"/>
    <path class="cls-1" d="M462,66.4c.1,1.1-.1,1.8-.8,2.2a5.5,5.5,0,0,1-2.5.7,125.3,125.3,0,0,0-29.4.4,163.3,163.3,0,0,0-28.6,6.4,246.4,246.4,0,0,0-24,9c-7.8,3.4-15.7,6.5-23.8,9.4a25.6,25.6,0,0,1-4.6,1.1,9.8,9.8,0,0,1-4.7-.7,8.4,8.4,0,0,1-4-2.7,6.9,6.9,0,0,1-1.7-4.6,9.9,9.9,0,0,1,1.6-5.3q1.5-2.5,3-4.8l6.2-8.2c2.6-3.5,5.3-6.7,8.1-9.8s5.7-6.2,8.6-9.1l-4.3.6-6.9,1.4-7,1.5-6.9,1.4a13.2,13.2,0,0,1-7.1-.4,4.6,4.6,0,0,1-1.8-1.1c-.8-.6-1-1.2-.5-2a4.2,4.2,0,0,1,2.4-2.1l3.4-1,4.1-.8a25.9,25.9,0,0,1,4-.9l15.9-3.1L375,41.4a192,192,0,0,1,42.4-27.9,2.7,2.7,0,0,1,2-.1,5.4,5.4,0,0,1,2.1.8,5.2,5.2,0,0,1,1.7,1.6,2.4,2.4,0,0,1,.6,1.9,15.2,15.2,0,0,1-3.4,8.1,75.7,75.7,0,0,1-6.1,6.6l-4.4,4,3.8-.4,3.9-.5,14.5-1.6c4.9-.6,9.8-1,14.6-1.4l13.8-1.3q6.9-.6,13.8-.6h1a8,8,0,0,1,3.3.8,4.9,4.9,0,0,1,2.4,2.3,2.1,2.1,0,0,1,.1,2.3,2.4,2.4,0,0,1-2,1.1c-5.4.7-10.8,1.2-16.3,1.4s-10.8.6-16.2,1.1c-7.9.7-15.8,1.5-23.6,2.4l-23.5,3-1.1.8-8.6,6.4-8.7,6.1-4.7,2.9-6,3.5L364,68.1c-2.1,1.1-4,2.1-5.7,2.8l-3.1,3.8a81.7,81.7,0,0,0-6,8.5L347.9,85a8.7,8.7,0,0,0-1.1,1.8,2.3,2.3,0,0,0-.3,1.1,7.6,7.6,0,0,1-.4,1.1l.6-.2h.4l1.3-.5,1.2-.7,5-1.9,5.5-2.1,5.5-2.2c7.3-3,14.5-5.8,21.8-8.5a184,184,0,0,1,22.2-6.8,155.7,155.7,0,0,1,23.5-3.9,119.6,119.6,0,0,1,23.9.6,6.1,6.1,0,0,1,3,1.1A4.8,4.8,0,0,1,462,66.4ZM375.6,53.5l4.4-3.1,4.5-3.3-4.5.7c-1.5,1.5-3,3-4.6,4.4l-4.6,4.4Zm33.6-27A205.6,205.6,0,0,0,390.7,39l5-.7,5.2-4.6,5.2-4.5,1.5-1.4Z" transform="translate(-40.8 -13.3)"/>
    <path class="cls-1" d="M550.5,67.9a9.5,9.5,0,0,1,2.3,1.1,3,3,0,0,1,1.1,2.3,1.4,1.4,0,0,1-.9,1.5,4.1,4.1,0,0,1-1.9.4l-6-.6a38.8,38.8,0,0,0-5.9-.1,94.6,94.6,0,0,0-11.4,1.6,79.1,79.1,0,0,0-11.2,3.3c-3.7,1.3-7.3,2.7-11,4.3l-9.7,3.6c-3.3,1.2-6.6,2.3-10,3.3a86.3,86.3,0,0,1-8.8,2,21.8,21.8,0,0,1-8.8.1,18.5,18.5,0,0,1-8-3.2A13.2,13.2,0,0,1,455.4,73a14.4,14.4,0,0,1,3.7-6.6,17.9,17.9,0,0,1,7.3-4.5,48.3,48.3,0,0,1,8.1-2.1,30.8,30.8,0,0,1,5.1-.4,8.7,8.7,0,0,1,4.6,1.3,8.4,8.4,0,0,1,2.9,2.7,5.1,5.1,0,0,1,.9,3.8,5.3,5.3,0,0,1-1.7,3.5,13.3,13.3,0,0,1-3.5,2,30.1,30.1,0,0,1-4.3,1.1l-4,.3a9.2,9.2,0,0,1-3.7-.1,31.2,31.2,0,0,1-5.3-1.1,9.8,9.8,0,0,0-1.9,4.3,6.6,6.6,0,0,0,.1,4.4,3.7,3.7,0,0,0,3.1,2.6,14.9,14.9,0,0,0,6.3-.2l6.1-1.4,7.3-2.2,7.1-2.5,13.6-5.3a94.9,94.9,0,0,1,14-4.4q3.4-.9,7.2-1.5a48,48,0,0,1,7.5-.9,46.1,46.1,0,0,1,7.5.3A27.4,27.4,0,0,1,550.5,67.9Zm-73-1.3-2.8.6-2.7,1h.8l2.7-.4a16.9,16.9,0,0,0,2.7-1Z" transform="translate(-40.8 -13.3)"/>
    <path class="cls-1" d="M707.3,67.6a2.1,2.1,0,0,1-1,2.2,4.9,4.9,0,0,1-2.7.5,79.6,79.6,0,0,0-16.9,0,138.3,138.3,0,0,0-16.6,3.1c-5.5,1.4-10.9,3.1-16.3,5l-15.9,5.8c-5.3,2.1-10.4,4-15.4,5.8a42,42,0,0,1-7.4,2.3,8.2,8.2,0,0,1-7.2-1.9,5.9,5.9,0,0,1-2.2-2.8,9.6,9.6,0,0,1-.6-3.3,23.3,23.3,0,0,1,.6-3.5l1.1-3.4a10.7,10.7,0,0,1,.8-2.7,21.4,21.4,0,0,1,1-2.2c-5.8,2.1-11.4,4.3-17,6.8s-11,5.3-16.4,8.3a4.5,4.5,0,0,1-2.7.6,7,7,0,0,1-2.9-.9,6.4,6.4,0,0,1-2-2,2.8,2.8,0,0,1-.2-2.7,48.5,48.5,0,0,0,2.6-9.8,143.3,143.3,0,0,0-24.3,16.3,3.2,3.2,0,0,1-2.6.5,5.3,5.3,0,0,1-2.9-1.2,4.4,4.4,0,0,1-1.8-2.3,2.2,2.2,0,0,1,.5-2.5,30.5,30.5,0,0,0,6.2-8.7l2.5-5.2a20.8,20.8,0,0,1,3.2-4.9,1.8,1.8,0,0,1,2.2,0,3.5,3.5,0,0,1,1.6,1.6,5.2,5.2,0,0,1-.3,2.9,9.1,9.1,0,0,0-.5,2.8c5.9-3.5,12-6.8,18.2-9.7a4.7,4.7,0,0,1,2.4-.2,6.7,6.7,0,0,1,2.3,1,7.7,7.7,0,0,1,1.8,1.8,3.7,3.7,0,0,1,.8,2.2c0,1.6-.1,3.1-.2,4.5s-.3,3-.5,4.6c5.9-3,12-5.7,18.1-8.2a167.9,167.9,0,0,1,18.9-6.4,6.7,6.7,0,0,1,2.8.1A12.3,12.3,0,0,1,621,63a18.1,18.1,0,0,1,1.5,1.9,1.7,1.7,0,0,1,.1,2.3c-1.4,2-2.7,4-3.9,6.1a31.9,31.9,0,0,0-2.8,6.6,9.8,9.8,0,0,0-1.1,3.1l-.2.6a3.1,3.1,0,0,1-.2.8l.9-.3.8-.3,14.1-5.3c4.6-1.8,9.2-3.4,13.9-4.9s9.4-3.2,14.2-4.6a142.9,142.9,0,0,1,14.3-3.7,90.1,90.1,0,0,1,14.6-2.1,73.5,73.5,0,0,1,14.8.4,10.3,10.3,0,0,1,3.2,1.3A4.3,4.3,0,0,1,707.3,67.6Z" transform="translate(-40.8 -13.3)"/>
    <path class="cls-1" d="M805.8,65.9a3.1,3.1,0,0,1,1.2,1.5,1.3,1.3,0,0,1-.4,1.8,6.5,6.5,0,0,1-5.1,1.1c-2.1-.2-3.9-.4-5.5-.4l-5.9.2c-1.8.1-3.8.2-5.8.5-3.9.4-7.8.9-11.6,1.5L761,73.8q-5.7.9-11.4,1.5a70.7,70.7,0,0,1-11.3.6,11.2,11.2,0,0,1-2,4.8,30,30,0,0,1-3.5,4.2,27.6,27.6,0,0,1-5.6,4.5,28.1,28.1,0,0,1-13.9,4.4,18.6,18.6,0,0,1-7.1-1.1,13.5,13.5,0,0,1-5.6-3.1,11.7,11.7,0,0,1-3.6-5.2,9.4,9.4,0,0,1,.1-6.4,40.2,40.2,0,0,1,2.5-5.9,35.2,35.2,0,0,1,2.5-5.3,61.6,61.6,0,0,1,3.3-5.5l3.7-5.3a51.3,51.3,0,0,1,3.8-4.7,81.1,81.1,0,0,1,8.5-9.1,88.4,88.4,0,0,1,9.5-7.9,93.5,93.5,0,0,1,10.9-7.2,56.6,56.6,0,0,1,11.9-5.2,22.7,22.7,0,0,1,5.9-1.2,18.8,18.8,0,0,1,6.7.2,12.4,12.4,0,0,1,5.6,2.5,7.7,7.7,0,0,1,2.7,5.6,9.1,9.1,0,0,1-1.3,5.8,24.7,24.7,0,0,1-4.2,5.1,35.7,35.7,0,0,1-5.4,4.2l-5,3.3A152,152,0,0,1,736,60.1,183,183,0,0,1,711.6,69l-3.3,5.7c-.7,1.2-1.4,2.7-2.2,4.3a10.4,10.4,0,0,0-1.1,4.7c0,1.7.6,2.8,2,3.2a8.9,8.9,0,0,0,4.6,0,24.6,24.6,0,0,0,5.1-1.5l3.7-1.7a24.6,24.6,0,0,0,7.2-6.5,10.4,10.4,0,0,0,1.5-2.5,6.1,6.1,0,0,1-2.4-1.5,5,5,0,0,1-2-3,2.6,2.6,0,0,1,1.2-2.8,2,2,0,0,1,2-2.5,10.3,10.3,0,0,1,4.9,1,11.2,11.2,0,0,1,3.9,3.2H738c3.4-.1,6.7-.4,10.2-.8l9.5-1.3,9.6-1.5,9.8-1.4c3.2-.4,6.5-.7,9.8-.8l4.7-.3h5.1a26.4,26.4,0,0,1,4.9.8A13.5,13.5,0,0,1,805.8,65.9ZM766.7,28.3a2.4,2.4,0,0,1-.1-.7c-.1-.4,0-.6.1-.7h-.3l-.3-.2a9.1,9.1,0,0,0-4.8.4,34.4,34.4,0,0,0-4.6,1.7,73.6,73.6,0,0,0-17.2,9.3,96.9,96.9,0,0,0-14.7,13.1,45.9,45.9,0,0,0-3.6,4.1l-3.4,4.2c5.1-2,10.2-4.2,15.1-6.4a108.6,108.6,0,0,0,14.3-7.6c2.9-1.7,5.8-3.5,8.7-5.5a38.4,38.4,0,0,0,7.8-6.7,13.7,13.7,0,0,0,1.7-2.3A8.4,8.4,0,0,0,766.7,28.3Z" transform="translate(-40.8 -13.3)"/>
    <path class="cls-1" d="M904.9,63.9a2.9,2.9,0,0,1,1.6.5,7,7,0,0,1,1.6,1.3,2.2,2.2,0,0,1,.6,1.4c.1.4-.2.8-1,1.1a44.4,44.4,0,0,1-6.2,1.9l-6.3,1.3L889.1,73,883,74.4l-11.9,3.4-12,3.6c-7.1,2.1-14.2,4-21.4,5.9a175,175,0,0,1-21.6,4.1l-5.1.7a47.3,47.3,0,0,1-5.3.4,45.1,45.1,0,0,1-5.2-.1,18,18,0,0,1-5-1.1,12.6,12.6,0,0,1-3.9-2.3,10.7,10.7,0,0,1-2.7-3.4,9.7,9.7,0,0,1-1.2-4.1,11.5,11.5,0,0,1,.8-4.6,15.9,15.9,0,0,1,5.8-7.4,36,36,0,0,1,8.5-4.7c1.4-.5,2.9-.8,4.5-1.2a25.9,25.9,0,0,1,4.8-.4,16.3,16.3,0,0,1,4.5.9,8.9,8.9,0,0,1,3.8,2.3,7.2,7.2,0,0,1,2,4,5.7,5.7,0,0,1-.9,3.6,7.8,7.8,0,0,1-2.8,2.9,7.3,7.3,0,0,1-4,1.5,13.5,13.5,0,0,1-6.9-.4,20.6,20.6,0,0,1-6.3-3.1,34.2,34.2,0,0,0-4.2,4.3,5.7,5.7,0,0,0-1.2,5.2,2,2,0,0,0,1.7,1.4,16.9,16.9,0,0,0,3.3.3l3.6-.4a12.9,12.9,0,0,1,2.5-.2c5.4-.6,10.9-1.4,16.3-2.5l16.2-3.9,16.1-4.7L872,69.7c5.3-1.5,10.7-2.9,16.3-4.3A52.2,52.2,0,0,1,904.9,63.9Zm-90.7,5.9h-1.4l-1.3.3a15.7,15.7,0,0,0-4.9,1.6,8.7,8.7,0,0,0,3.8.8c1.3,0,2.4-.7,3.5-2.1Z" transform="translate(-40.8 -13.3)"/>
    <path class="cls-1" d="M1003.4,68.1a2.4,2.4,0,0,1-.4,3.2,2.6,2.6,0,0,1-2.6.2l-3-.9a20,20,0,0,0-4.2-.5l-4.7-.2-5.6.4-5.5.4c-3.6.5-7.2,1.1-10.8,1.9l-10.7,2.3-5,.9a53.2,53.2,0,0,1-5.6.6,19.7,19.7,0,0,1-5.4-.4,10.9,10.9,0,0,1-4.6-2.2,4.9,4.9,0,0,1-1.3-1.2l-1.2-1.3c-5,2.9-9.9,5.8-14.7,9a121.5,121.5,0,0,0-13.6,10.3,3.1,3.1,0,0,1-2.7.6,8.1,8.1,0,0,1-3-1.3,5.6,5.6,0,0,1-1.9-2.2,2.1,2.1,0,0,1,.4-2.5,34.4,34.4,0,0,0,4.8-6.6,18.6,18.6,0,0,1,1-2,10.7,10.7,0,0,0,.7-1.9,1.7,1.7,0,0,0,.3-1,1,1,0,0,1,.3-.8l.2-.9h.7a6.3,6.3,0,0,1-2.2-2.4c-.5-1-.1-1.8,1.1-2.2a5,5,0,0,1,3.8.1,9.5,9.5,0,0,1,3.4,2.2,5.3,5.3,0,0,1,1.3,3.8c4-2.6,8-5.1,12-7.3l12.2-6.8a4,4,0,0,1,3-.4,9.1,9.1,0,0,1,3.1,1.2,11.4,11.4,0,0,1,1.5,2.3,1.8,1.8,0,0,1-.5,2.5,9,9,0,0,0-1.9,1.5,4.6,4.6,0,0,0-1.3,1.8l-.3,1.1a32.9,32.9,0,0,1,4.4-.5,34,34,0,0,0,4.5-.3l9.2-1.9c3-.8,6-1.4,9.1-2s6.3-1,9.5-1.3a61.6,61.6,0,0,1,9.6-.2h5a41.3,41.3,0,0,1,4.9.7,27.8,27.8,0,0,1,3.8,1.2A6,6,0,0,1,1003.4,68.1Z" transform="translate(-40.8 -13.3)"/>
    <path class="cls-1" d="M1003.7,83.6a2,2,0,0,1,2-1.2,7.4,7.4,0,0,1,2.9.8,5.8,5.8,0,0,1,2.1,2,2.1,2.1,0,0,1,.3,2.4,19,19,0,0,1-2.8,3.9,28.1,28.1,0,0,1-3.3,3.5l-2.2,1.7-2.2,1.6-2.3,1.3-2.3,1.2c-.3.2-.6.2-1-.2a.8.8,0,0,1-.1-1.1,59.4,59.4,0,0,0,3.9-5.5,57.6,57.6,0,0,0,3.3-6,18,18,0,0,0,.8-2.1A7.3,7.3,0,0,1,1003.7,83.6Z" transform="translate(-40.8 -13.3)"/>
    <path class="cls-1" d="M1246.8,66.4c.2,1.1,0,1.8-.8,2.2a4.8,4.8,0,0,1-2.4.7,125.3,125.3,0,0,0-29.4.4,161.3,161.3,0,0,0-28.6,6.4,246.4,246.4,0,0,0-24,9c-7.8,3.4-15.7,6.5-23.8,9.4a27.8,27.8,0,0,1-4.6,1.1,9.7,9.7,0,0,1-4.7-.7,8.4,8.4,0,0,1-4-2.7,6.4,6.4,0,0,1-1.7-4.6,10.7,10.7,0,0,1,1.5-5.3l3.1-4.8,6.2-8.2c2.6-3.5,5.3-6.7,8.1-9.8s5.7-6.2,8.6-9.1l-4.3.6-6.9,1.4-7,1.5-7,1.4a12.9,12.9,0,0,1-7-.4,5.6,5.6,0,0,1-1.9-1.1,1.4,1.4,0,0,1-.4-2,4.2,4.2,0,0,1,2.4-2.1l3.4-1,4.1-.8a25.9,25.9,0,0,1,4-.9l15.9-3.1,14.3-2.5a192,192,0,0,1,42.4-27.9,2.7,2.7,0,0,1,2-.1,6,6,0,0,1,2.1.8,5.2,5.2,0,0,1,1.7,1.6,2.3,2.3,0,0,1,.5,1.9,14.3,14.3,0,0,1-3.3,8.1,75.7,75.7,0,0,1-6.1,6.6l-4.5,4,3.9-.4,3.8-.5,14.6-1.6c4.9-.6,9.7-1,14.6-1.4l13.8-1.3c4.6-.4,9.1-.6,13.7-.6h1.1a8,8,0,0,1,3.3.8,5.9,5.9,0,0,1,2.4,2.3,2.2,2.2,0,0,1-1.9,3.4c-5.4.7-10.8,1.2-16.3,1.4s-10.8.6-16.2,1.1c-8,.7-15.8,1.5-23.6,2.4l-23.6,3-1,.8-8.6,6.4-8.7,6.1-4.7,2.9-6,3.5-6.4,3.4c-2.1,1.1-4,2.1-5.7,2.8l-3.1,3.8a81.7,81.7,0,0,0-6,8.5l-1.3,1.8a8.7,8.7,0,0,0-1.1,1.8,2.3,2.3,0,0,0-.3,1.1,7.6,7.6,0,0,1-.4,1.1l.6-.2h.4l1.2-.5,1.3-.7,5-1.9,5.5-2.1,5.5-2.2c7.2-3,14.5-5.8,21.8-8.5a184,184,0,0,1,22.2-6.8,153.6,153.6,0,0,1,23.5-3.9,119.8,119.8,0,0,1,23.9.6,6.5,6.5,0,0,1,3,1.1A4.2,4.2,0,0,1,1246.8,66.4Zm-86.4-12.9c1.6-1,3.1-2.1,4.5-3.1l4.5-3.3-4.5.7-4.6,4.4-4.6,4.4Zm33.7-27A192.3,192.3,0,0,0,1175.6,39l5-.7,5.2-4.6,5.2-4.5,1.5-1.4Z" transform="translate(-40.8 -13.3)"/>
    <path class="cls-1" d="M1334.3,67.4a2.8,2.8,0,0,1,1.3.6,6.4,6.4,0,0,1,1.5,1.3,2.7,2.7,0,0,1,.7,1.4c0,.5-.3.8-1,1a59.3,59.3,0,0,1-7.3,1.6c-2.4.4-4.9.8-7.3,1.4a92.7,92.7,0,0,0-14.1,3.9,121.6,121.6,0,0,0-13.7,5.4c-4.4,2-8.9,4.2-13.3,6.6l-3.1,1.5-3.5,1.7a18.9,18.9,0,0,1-3.6,1,8.3,8.3,0,0,1-3.5.1,9.2,9.2,0,0,1-5.5-3.4,7.6,7.6,0,0,1-1.6-6.3,30.6,30.6,0,0,1,1.7-4.8c.8-1.6,1.7-3.1,2.7-4.7-5.3,2.6-10.5,5.5-15.6,8.5l-14.9,9.3a4.6,4.6,0,0,1-4.1.3,5.9,5.9,0,0,1-3.1-2.7,5,5,0,0,1-.7-3.7,9.2,9.2,0,0,1,1.5-3.6c1.1-1.4,2.2-2.8,3.3-4s2.2-2.6,3.3-4.1,4.6-5.1,6.9-7.5,4.7-4.9,7.2-7.3c4.1-4.2,8.3-8.3,12.6-12.4a113.4,113.4,0,0,1,13.7-11.2,77.6,77.6,0,0,1,6.8-4.9c2.3-1.5,4.7-2.9,7.1-4.2l3.7-1.7a12,12,0,0,1,3.9-1.3,6.6,6.6,0,0,1,3.7.2,6.1,6.1,0,0,1,3.3,2.4,4.3,4.3,0,0,1,.9,3.4,11.1,11.1,0,0,1-1.4,3.4,34.3,34.3,0,0,1-2.4,3.3l-2.3,2.7a59.7,59.7,0,0,1-5.4,5.8l-6,5c-2.4,1.8-4.8,3.5-7.4,5.1s-5.1,3-7.7,4.4-5.8,2.9-8.7,4.2a56.6,56.6,0,0,1-9,3.2h-.8l-2.4,2.4c-.8.8-1.5,1.7-2.2,2.5l-2.3,2.3-2.2,2.4c5.1-3,10.3-5.8,15.5-8.4a143.9,143.9,0,0,1,16.2-7,3.6,3.6,0,0,1,2.5.1,8,8,0,0,1,2.8,1.3,5.2,5.2,0,0,1,1.7,2,1.9,1.9,0,0,1-.8,2.3,56.1,56.1,0,0,0-7.3,8.7,49.6,49.6,0,0,0-5.3,10.2l2.7-1.2,2.7-1.3,5.5-2.9c1.8-1,3.7-2,5.7-2.9,3.7-1.8,7.6-3.4,11.6-4.9s8-2.8,12.1-4a104.7,104.7,0,0,1,12.2-2.3A47.5,47.5,0,0,1,1334.3,67.4Zm-52.5-25.3c-2.9,2.2-5.7,4.4-8.5,6.8s-5.5,4.9-8.2,7.4c-.1,0-.2,0-.2.1a.4.4,0,0,1-.1.3,111.7,111.7,0,0,0,12.6-7.8,72.9,72.9,0,0,0,10.8-9.2l1.9-2.1,1.7-2.1-.5.2-.4.3-4.6,3C1284.7,40,1283.3,41,1281.8,42.1Z" transform="translate(-40.8 -13.3)"/>
    <path class="cls-1" d="M1435.8,63.9a3.2,3.2,0,0,1,1.7.5,6.4,6.4,0,0,1,1.5,1.3,3.1,3.1,0,0,1,.7,1.4c0,.4-.3.8-1,1.1a54.5,54.5,0,0,1-6.2,1.9l-6.4,1.3-6,1.6-6.1,1.4-12,3.4-11.9,3.6c-7.1,2.1-14.3,4-21.4,5.9a180.2,180.2,0,0,1-21.7,4.1l-5,.7a49.1,49.1,0,0,1-5.3.4,44.7,44.7,0,0,1-5.2-.1,17.2,17.2,0,0,1-5-1.1,13.1,13.1,0,0,1-4-2.3,14.4,14.4,0,0,1-2.7-3.4,9.6,9.6,0,0,1-1.1-4.1,10,10,0,0,1,.8-4.6,15.9,15.9,0,0,1,5.8-7.4,34.2,34.2,0,0,1,8.5-4.7,39.5,39.5,0,0,1,4.4-1.2,27.4,27.4,0,0,1,4.8-.4,17.9,17.9,0,0,1,4.6.9,8,8,0,0,1,3.7,2.3,6.8,6.8,0,0,1,2.1,4,6.4,6.4,0,0,1-.9,3.6,8.1,8.1,0,0,1-2.9,2.9,7.3,7.3,0,0,1-3.9,1.5,13.8,13.8,0,0,1-7-.4,20.6,20.6,0,0,1-6.3-3.1,27.8,27.8,0,0,0-4.1,4.3,6,6,0,0,0-1.3,5.2,2.1,2.1,0,0,0,1.8,1.4,16.9,16.9,0,0,0,3.3.3l3.5-.4a13.4,13.4,0,0,1,2.5-.2c5.5-.6,10.9-1.4,16.3-2.5s10.8-2.5,16.2-3.9l16.1-4.7,16.2-4.7c5.3-1.5,10.8-2.9,16.3-4.3A52.5,52.5,0,0,1,1435.8,63.9Zm-90.7,5.9h-1.3l-1.4.3a14.3,14.3,0,0,0-4.8,1.6,8.3,8.3,0,0,0,3.7.8,4.6,4.6,0,0,0,3.6-2.1Z" transform="translate(-40.8 -13.3)"/>
    <path class="cls-1" d="M1584.5,26.5v.2c.1,0,.1.1.1.2l12.3,1.1,12.1,1.3,9.5.8c3.2.3,6.4.6,9.6,1.1a76.2,76.2,0,0,1,9.3,1.8,54.4,54.4,0,0,1,8.6,3l1,.9.9,1.2a1.7,1.7,0,0,1,.2,1.2,1.2,1.2,0,0,1-1,.7,22.1,22.1,0,0,1-7.2.8l-7.1-.6-8-.8-8.1-.9L1601,36.8l-15.8-1.6-6-.4-1.2,1.1-2.9,3.2-4.7,5.1-5.6,6.1-5.5,6.1-4.7,5.3a31.8,31.8,0,0,0-2.7,3.4,57.4,57.4,0,0,0-6.3,13.2,48.6,48.6,0,0,0-2.6,14.4,2.2,2.2,0,0,1-.6,1.7,3.5,3.5,0,0,1-1.5.7l-1.8.2a3.8,3.8,0,0,1-1.6-.3,8.2,8.2,0,0,1-6.5-4.8,12,12,0,0,1-.3-7.9,25.5,25.5,0,0,1,3.5-7.5,58.5,58.5,0,0,1,5.3-7c1.9-2.2,3.5-4.2,4.9-6.1l4.2-4.9c2.2-2.3,4.5-4.9,7-7.7l7.5-8.3,6-6.5a73,73,0,0,0-8.1-.2l-8.2.2c-2.6,0-5.1.1-7.6.3s-5,.5-7.6.6l-4.1.6-4,.6h-1.4a8.6,8.6,0,0,0-1.7.3,4.9,4.9,0,0,0-1.7.6,1.5,1.5,0,0,0-.8,1.1,3.1,3.1,0,0,1-1.2,1.5,4.1,4.1,0,0,1-1.6.3,6.1,6.1,0,0,1-1.8-.5,7.5,7.5,0,0,1-1.5-.9c-2.2-1.6-3.2-3.3-3-5.4s1.5-3.5,4.1-4.5a36.8,36.8,0,0,1,8.4-1.8c3-.3,5.9-.6,8.6-.7a140.4,140.4,0,0,1,18.3-1.1c6,.1,12.1.3,18.1.7l4.9.2a12.6,12.6,0,0,1,2.6-1.3,4.5,4.5,0,0,1,2.8-.3,4.1,4.1,0,0,1,1.1.7A1.9,1.9,0,0,1,1584.5,26.5Z" transform="translate(-40.8 -13.3)"/>
    <path class="cls-1" d="M1731.9,63.9a2.9,2.9,0,0,1,1.6.5,7,7,0,0,1,1.6,1.3,2.2,2.2,0,0,1,.6,1.4c.1.4-.2.8-1,1.1a44.4,44.4,0,0,1-6.2,1.9l-6.3,1.3-6.1,1.6-6.1,1.4-11.9,3.4-12,3.6c-7.1,2.1-14.2,4-21.4,5.9a175,175,0,0,1-21.6,4.1l-5.1.7a55.6,55.6,0,0,1-10.5.3,18,18,0,0,1-5-1.1,12.6,12.6,0,0,1-3.9-2.3,10.7,10.7,0,0,1-2.7-3.4,9.7,9.7,0,0,1-1.2-4.1,11.5,11.5,0,0,1,.8-4.6,15.9,15.9,0,0,1,5.8-7.4,36,36,0,0,1,8.5-4.7c1.4-.5,2.9-.8,4.5-1.2a25.9,25.9,0,0,1,4.8-.4,16.3,16.3,0,0,1,4.5.9,8.9,8.9,0,0,1,3.8,2.3,7.2,7.2,0,0,1,2,4,5.7,5.7,0,0,1-.9,3.6,7.8,7.8,0,0,1-2.8,2.9,7.3,7.3,0,0,1-4,1.5,13.5,13.5,0,0,1-6.9-.4,20.6,20.6,0,0,1-6.3-3.1,34.2,34.2,0,0,0-4.2,4.3,5.7,5.7,0,0,0-1.2,5.2,2.1,2.1,0,0,0,1.7,1.4,16.9,16.9,0,0,0,3.3.3l3.6-.4a12.9,12.9,0,0,1,2.5-.2c5.4-.6,10.9-1.4,16.3-2.5s10.8-2.5,16.2-3.9l16.1-4.7,16.2-4.7c5.3-1.5,10.7-2.9,16.3-4.3A52.2,52.2,0,0,1,1731.9,63.9Zm-90.7,5.9h-1.4l-1.3.3a15.7,15.7,0,0,0-4.9,1.6,8.7,8.7,0,0,0,3.8.8c1.3,0,2.4-.7,3.5-2.1Z" transform="translate(-40.8 -13.3)"/>
    <path class="cls-1" d="M1814.7,64.7l2.5.6a11.7,11.7,0,0,1,2.7,1.5,4.9,4.9,0,0,1,1.8,2,2.8,2.8,0,0,1-.4,2.6,1.4,1.4,0,0,1-1.3.7l-1.8-.2-1.9-.5-1.5-.3a80.8,80.8,0,0,0-22.6,3.3,91.9,91.9,0,0,0-11.8,4.3,106.5,106.5,0,0,0-11,5.9c-1.4.9-3.1,2-5.1,3.1a29,29,0,0,1-6.1,2.5,11.8,11.8,0,0,1-5.9,0,7.3,7.3,0,0,1-4.6-4.1,6,6,0,0,1-.5-5,26.5,26.5,0,0,1,2.1-4.6l2.2-3.5-4.1,2.2a30.3,30.3,0,0,0-3.8,2.4,96.3,96.3,0,0,0-8,5.8q-3.7,3.1-7.2,6.6a2.4,2.4,0,0,1-2.6.6,7.4,7.4,0,0,1-2.9-1.2,5.1,5.1,0,0,1-1.9-2.3,2.2,2.2,0,0,1,.5-2.5,33.3,33.3,0,0,0,3.6-3.9c1.1-1.4,2.2-2.9,3.2-4.4l1.3-2.4,1.5-2.4a1.2,1.2,0,0,0,.2-1.2L1731,69a2.2,2.2,0,0,1,.2-1.2c.2-.4.7-.7,1.6-1a6.5,6.5,0,0,1,3.9.7,3.2,3.2,0,0,1,2.2,3c1.7-1.1,3.5-2.1,5.3-3.1a30.1,30.1,0,0,1,5.5-2.5,23.2,23.2,0,0,1,5.8-1.3,17.9,17.9,0,0,1,6,.5l1.4.8,1.7,1.2a6.5,6.5,0,0,1,1,1.5,2.1,2.1,0,0,1-.2,1.7l-4.1,5.8c-1.3,1.8-2.6,3.8-3.9,5.8a5.6,5.6,0,0,0-.5.8l-.4.9a3.7,3.7,0,0,1,1.5-.8l10.3-6.1a53.1,53.1,0,0,1,10.7-5.2,71,71,0,0,1,11.6-3.7,100.1,100.1,0,0,1,12-2q3-.3,6-.3A41,41,0,0,1,1814.7,64.7Z" transform="translate(-40.8 -13.3)"/>
    <path class="cls-1" d="M1927.6,66.4c.2,1.1,0,1.8-.8,2.2a4.8,4.8,0,0,1-2.4.7,125.3,125.3,0,0,0-29.4.4,161.3,161.3,0,0,0-28.6,6.4,246.4,246.4,0,0,0-24,9c-7.8,3.4-15.7,6.5-23.8,9.4a27.8,27.8,0,0,1-4.6,1.1,9.7,9.7,0,0,1-4.7-.7,8.4,8.4,0,0,1-4-2.7,6.4,6.4,0,0,1-1.7-4.6,10.7,10.7,0,0,1,1.5-5.3l3.1-4.8,6.2-8.2c2.6-3.5,5.3-6.7,8.1-9.8s5.7-6.2,8.6-9.1l-4.3.6-7,1.4-6.9,1.5-7,1.4a12.9,12.9,0,0,1-7-.4,5.6,5.6,0,0,1-1.9-1.1,1.4,1.4,0,0,1-.4-2,4.2,4.2,0,0,1,2.4-2.1l3.4-1,4.1-.8a25.9,25.9,0,0,1,4-.9l15.9-3.1,14.3-2.5a192,192,0,0,1,42.4-27.9,2.7,2.7,0,0,1,2-.1,6,6,0,0,1,2.1.8,6.5,6.5,0,0,1,1.7,1.6,2.3,2.3,0,0,1,.5,1.9,14.3,14.3,0,0,1-3.3,8.1,75.7,75.7,0,0,1-6.1,6.6l-4.5,4,3.9-.4,3.8-.5,14.6-1.6c4.9-.6,9.7-1,14.6-1.4l13.8-1.3c4.6-.4,9.1-.6,13.7-.6h1.1a8,8,0,0,1,3.3.8,5.9,5.9,0,0,1,2.4,2.3,2.2,2.2,0,0,1-1.9,3.4c-5.4.7-10.8,1.2-16.3,1.4s-10.8.6-16.2,1.1c-8,.7-15.8,1.5-23.6,2.4l-23.6,3-1,.8-8.6,6.4-8.7,6.1-4.7,2.9-6.1,3.5-6.3,3.4c-2.1,1.1-4,2.1-5.7,2.8l-3.1,3.8a81.7,81.7,0,0,0-6,8.5l-1.3,1.8a8.7,8.7,0,0,0-1.1,1.8,2.3,2.3,0,0,0-.3,1.1,7.6,7.6,0,0,1-.4,1.1l.6-.2h.4l1.2-.5,1.3-.7,5-1.9,5.5-2.1,5.5-2.2c7.2-3,14.5-5.8,21.8-8.5a184,184,0,0,1,22.2-6.8,153.6,153.6,0,0,1,23.5-3.9,119.8,119.8,0,0,1,23.9.6,6.5,6.5,0,0,1,3,1.1A4.2,4.2,0,0,1,1927.6,66.4Zm-86.4-12.9c1.6-1,3.1-2.1,4.5-3.1l4.5-3.3-4.5.7-4.6,4.4-4.6,4.4Zm33.7-27A192.3,192.3,0,0,0,1856.4,39l5-.7,5.2-4.6,5.2-4.5,1.5-1.4Z" transform="translate(-40.8 -13.3)"/>
    <path class="cls-1" d="M2015.1,67.4a2.8,2.8,0,0,1,1.3.6,6.4,6.4,0,0,1,1.5,1.3,2.7,2.7,0,0,1,.7,1.4c0,.5-.3.8-1,1a59.3,59.3,0,0,1-7.3,1.6c-2.4.4-4.9.8-7.3,1.4a92.7,92.7,0,0,0-14.1,3.9,121.6,121.6,0,0,0-13.7,5.4c-4.4,2-8.9,4.2-13.3,6.6l-3.1,1.5-3.5,1.7a21.2,21.2,0,0,1-3.6,1,8.3,8.3,0,0,1-3.5.1,9.2,9.2,0,0,1-5.5-3.4,7.6,7.6,0,0,1-1.6-6.3,30.6,30.6,0,0,1,1.7-4.8c.8-1.6,1.7-3.1,2.7-4.7-5.3,2.6-10.5,5.5-15.6,8.5L1915,93.5a4.6,4.6,0,0,1-4.1.3,5.9,5.9,0,0,1-3.1-2.7,5,5,0,0,1-.7-3.7,9.2,9.2,0,0,1,1.5-3.6c1.1-1.4,2.2-2.8,3.3-4s2.2-2.6,3.3-4.1,4.6-5.1,6.9-7.5,4.7-4.9,7.2-7.3c4.1-4.2,8.3-8.3,12.6-12.4a113.4,113.4,0,0,1,13.7-11.2,77.6,77.6,0,0,1,6.8-4.9c2.3-1.5,4.7-2.9,7.1-4.2l3.7-1.7a12,12,0,0,1,3.9-1.3,6.6,6.6,0,0,1,3.7.2,6.1,6.1,0,0,1,3.3,2.4,4.3,4.3,0,0,1,.9,3.4,11.1,11.1,0,0,1-1.4,3.4,34.3,34.3,0,0,1-2.4,3.3l-2.3,2.7a59.7,59.7,0,0,1-5.4,5.8l-6,5c-2.4,1.8-4.8,3.5-7.4,5.1s-5.1,3-7.7,4.4l-8.7,4.2a56.6,56.6,0,0,1-9,3.2h-.8c-.9.8-1.6,1.6-2.4,2.4s-1.5,1.7-2.2,2.5l-2.3,2.3-2.2,2.4c5.1-3,10.3-5.8,15.5-8.4a143.9,143.9,0,0,1,16.2-7,3.6,3.6,0,0,1,2.5.1,8,8,0,0,1,2.8,1.3,5.2,5.2,0,0,1,1.7,2,1.9,1.9,0,0,1-.8,2.3,56.1,56.1,0,0,0-7.3,8.7,49.6,49.6,0,0,0-5.3,10.2l2.7-1.2,2.7-1.3,5.5-2.9c1.8-1,3.7-2,5.7-2.9,3.7-1.8,7.6-3.4,11.6-4.9s8-2.8,12.1-4a104.7,104.7,0,0,1,12.2-2.3A47.5,47.5,0,0,1,2015.1,67.4Zm-52.5-25.3c-2.9,2.2-5.7,4.4-8.5,6.8s-5.5,4.9-8.2,7.4c-.1,0-.2,0-.2.1a.4.4,0,0,1-.1.3,111.7,111.7,0,0,0,12.6-7.8,72.9,72.9,0,0,0,10.8-9.2l1.9-2.1,1.7-2.1-.5.2-.4.3-4.6,3A50.9,50.9,0,0,0,1962.6,42.1Z" transform="translate(-40.8 -13.3)"/>
  </g>
</svg>
