<svg id="logo-group" xmlns="http://www.w3.org/2000/svg" viewBox="0 0 1888.2 1854"><defs><style>.cls-1{fill:#CC071E;}.cls-2{fill:#fff;}.cls-3{fill:#151515;}</style></defs><title>ACO- LOGO-red-white</title><path class="cls-1" d="M1921.2,1323.8c-229.4,0-554.3,1-717.4,0-8.9-.1-24.8-2.1-44.8-7.2-128.3-32.8-202.9-143.2-233.4-197C869.5,1017,812.8,913.7,756.7,810.5c-62,99.7-354.3,591.1-416.4,690.7L80,1500.9,662.4,518c7.2-7.1,38.8-39.4,90.1-41.7,62.1-3,101.5,40.5,106.3,46.5,32.2,48.4,63.9,96.7,96.1,145.6,32.8,57,121.7,206.8,123.6,246.4v.3c1.9,91.4,64,172.7,153.3,198.6h544C1800.5,1150,1896.5,1287.7,1921.2,1323.8Z" transform="translate(-33 1)"/><path class="cls-2" d="M1919.2,501.3,1773.8,713.2H1220.3c-85.4,28.6-143.3,108.6-143.9,197.6,0,1.3,0,2.6.1,4-1.9-39.6-90.8-189.4-123.6-246.4,13.1-25,37-63.8,78.8-99a320,320,0,0,1,131.9-68.1Z" transform="translate(-33 1)"/><path class="cls-3" d="M1846.5,654.3l-57.6,83.9h-77.8a782,782,0,0,1,5.8,350.5H1789l7.4,10.9c9.9,14.6,31.8,46.2,55.4,80.2a932.1,932.1,0,0,0-5.3-525.5ZM960,152c259.8,0,489.7,128,630.1,324.3h180.7C1612.6,191.6,1308.8-1,960-1,448-1,33,414,33,926c0,154.6,37.8,300.3,104.7,428.4l95.6-161.3A772.4,772.4,0,0,1,186,926C186,498.5,532.5,152,960,152Zm648.2,1197.1C1470,1560.4,1231.3,1700,960,1700c-222,0-422.1-93.4-563.2-243.1-15.1,24.7-27.2,44.5-35.3,57.5l-7.3,11.8H253.5c170,200,423.4,326.9,706.5,326.9,359.6,0,671.4-204.8,825.1-504.1H1608.2Z" transform="translate(-33 1)"/></svg>